<svg xmlns="http://www.w3.org/2000/svg" version="1.1" viewBox="0 0 256 450">
 <defs>
  <filter id="filter3124" color-interpolation-filters="sRGB">
   <feGaussianBlur stdDeviation="5" result="result6"/>
   <feComposite operator="atop" result="result91" in2="result6" in="SourceGraphic"/>
   <feComposite operator="in" in2="result91" result="result92"/>
   <feComposite operator="in" in2="result92"/>
  </filter>
 </defs>
 <g transform="translate(0,-602.36218)">
  <g style="letter-spacing:0px;word-spacing:0px;" font-weight="normal" transform="matrix(0,1.0739335,-1.0739335,0,385.37904,1680.2208)" stroke="#000000" font-size="40px" font-style="normal" font-family="Sans" line-height="125%" fill="#008000">
   <path d="m-829.25,244.68,0-3.2812,18.965-8.0078,0,3.4961-15.039,6.1719,15.039,6.2305,0,3.4961z"/>
   <path d="m-802.2,257.2-3.2617,0,0-28.633,3.5156,0,0,10.215c1.4844-1.862,3.3789-2.793,5.6836-2.793,1.276,0.00002,2.4837,0.25718,3.623,0.77149,1.1393,0.51434,2.0768,1.237,2.8125,2.168,0.73566,0.93101,1.3118,2.0541,1.7285,3.3692,0.41665,1.3151,0.62498,2.7214,0.625,4.2188-0.00002,3.5547-0.87892,6.3021-2.6367,8.2422s-3.8672,2.9102-6.3281,2.9102c-2.4479,0-4.3685-1.0221-5.7617-3.0664zm-0.0391-10.527c-0.00001,2.487,0.33853,4.2839,1.0156,5.3906,1.1068,1.8099,2.6042,2.7148,4.4922,2.7148,1.5364,0.00001,2.8646-0.66731,3.9844-2.002,1.1198-1.3346,1.6797-3.3236,1.6797-5.9668-0.00001-2.7083-0.53712-4.707-1.6113-5.9961-1.0742-1.289-2.3731-1.9336-3.8965-1.9336-1.5365,0.00001-2.8646,0.66733-3.9844,2.002-1.1198,1.3346-1.6797,3.265-1.6797,5.791z"/>
   <path d="m-784.48,246.83c-0.00001-3.8411,1.0677-6.6862,3.2031-8.5352,1.7838-1.5364,3.9583-2.3047,6.5234-2.3047,2.8516,0.00002,5.1823,0.93427,6.9922,2.8027,1.8099,1.8685,2.7148,4.4499,2.7148,7.7441-0.00002,2.6693-0.40041,4.7689-1.2012,6.2988-0.8008,1.53-1.9662,2.7181-3.4961,3.5645-1.53,0.84635-3.1999,1.2695-5.0098,1.2695-2.9037,0-5.2507-0.93099-7.041-2.793-1.7904-1.862-2.6856-4.5443-2.6855-8.0469zm3.6133,0c-0.00001,2.6562,0.57942,4.6452,1.7383,5.9668,1.1588,1.3216,2.6172,1.9824,4.375,1.9824,1.7448,0.00001,3.1966-0.66406,4.3555-1.9922,1.1588-1.3281,1.7383-3.3529,1.7383-6.0742-0.00002-2.5651-0.5827-4.5084-1.748-5.8301-1.1654-1.3216-2.6139-1.9824-4.3457-1.9824-1.7578,0.00002-3.2162,0.65757-4.375,1.9726-1.1589,1.3151-1.7383,3.3008-1.7383,5.957z"/>
   <path d="m-747.45,257.2,0-2.6172c-1.3151,2.0573-3.2487,3.0859-5.8008,3.0859-1.6536,0-3.1738-0.45573-4.5605-1.3672-1.3867-0.91145-2.4609-2.1842-3.2227-3.8184-0.76172-1.6341-1.1426-3.5124-1.1426-5.6348,0-2.0703,0.34505-3.9486,1.0352-5.6348,0.6901-1.6862,1.7253-2.9785,3.1055-3.877,1.3802-0.89842,2.9232-1.3476,4.6289-1.3477,1.25,0.00002,2.3633,0.26369,3.3398,0.79102,0.97655,0.52736,1.7708,1.2142,2.3828,2.0605v-10.273h3.4961v28.633zm-11.113-10.352c0,2.6562,0.55989,4.6419,1.6797,5.957s2.4414,1.9727,3.9648,1.9726c1.5364,0.00001,2.8418-0.62825,3.916-1.8848,1.0742-1.2565,1.6113-3.1738,1.6113-5.752-0.00002-2.8385-0.54689-4.9219-1.6406-6.25-1.0938-1.3281-2.4414-1.9922-4.043-1.9922-1.5625,0.00002-2.8678,0.63804-3.916,1.9141s-1.5723,3.2878-1.5723,6.0352z"/>
   <path d="m-738.8,265.19-0.39063-3.3008c0.76823,0.20833,1.4388,0.31249,2.0117,0.3125,0.78125-0.00001,1.4062-0.13021,1.875-0.39063,0.46875-0.26042,0.85286-0.625,1.1524-1.0938,0.22134-0.35156,0.57942-1.224,1.0742-2.6172,0.0651-0.19532,0.16926-0.48177,0.3125-0.85938l-7.8711-20.781h3.7891l4.3164,12.012c0.55989,1.5234,1.0612,3.125,1.5039,4.8047,0.40363-1.6146,0.8854-3.1901,1.4453-4.7266l4.4336-12.09h3.5156l-7.8906,21.094c-0.84636,2.2786-1.5039,3.8476-1.9726,4.707-0.62501,1.1588-1.3412,2.0085-2.1484,2.5488-0.8073,0.54036-1.7708,0.81054-2.8906,0.81055-0.67708-0.00001-1.4323-0.14324-2.2656-0.42969z"/>
   <path d="m-700.13,244.68-18.965,8.1055,0-3.4961,15.02-6.2305-15.02-6.1719,0-3.4961,18.965,8.0078z"/>
  </g>
  <g style="letter-spacing:0px;word-spacing:0px;" stroke-width="0.71170264" font-weight="normal" font-size="40.47045135px" transform="matrix(0.42689436,0,0,0.42689436,-290.83102,594.31223)" stroke="#000000" line-height="125%" font-style="normal" font-family="Sans" fill="#ff0000">
   <path d="m908.61,434.37,0-3.3198,19.188-8.102,0,3.5372-15.216,6.2445,15.216,6.3037,0,3.5372z"/>
   <path d="m931.27,440.77,3.5174-0.55331c0.1976,1.4096,0.74761,2.4899,1.65,3.2408,0.90241,0.75092,2.1638,1.1264,3.7842,1.1264,1.6336,0.00001,2.8456-0.33264,3.636-0.99792,0.79042-0.66529,1.1856-1.4458,1.1857-2.3417-0.00002-0.8036-0.34913-1.436-1.0473-1.897-0.48745-0.31617-1.6995-0.71797-3.636-1.2054-2.6085-0.65869-4.4166-1.2285-5.4244-1.7093-1.0078-0.48084-1.7719-1.1461-2.2923-1.9959-0.52037-0.84971-0.78056-1.7884-0.78056-2.8159,0-0.93533,0.21408-1.8015,0.64224-2.5986,0.42815-0.79701,1.0111-1.459,1.7488-1.986,0.5533-0.40837,1.3075-0.75419,2.2626-1.0374,0.95511-0.28322,1.9794-0.42484,3.0728-0.42486,1.6467,0.00002,3.0926,0.23715,4.3375,0.71139,1.2449,0.47429,2.1638,1.1165,2.7567,1.9267,0.59281,0.81021,1.0012,1.8938,1.2252,3.2507l-3.4779,0.47427c-0.1581-1.0802-0.6159-1.9234-1.3734-2.5294-0.75752-0.60598-1.8279-0.90898-3.2112-0.909-1.6336,0.00002-2.7995,0.27009-3.4977,0.8102-0.69822,0.54015-1.0473,1.1725-1.0473,1.897,0,0.46111,0.14491,0.87609,0.43474,1.2449,0.28983,0.38206,0.74433,0.69824,1.3635,0.94853,0.35569,0.13175,1.403,0.43475,3.142,0.909,2.5162,0.67189,4.2716,1.2219,5.2663,1.65,0.99462,0.42817,1.7752,1.0506,2.3417,1.8674,0.56647,0.8168,0.84971,1.8312,0.84973,3.0432-0.00002,1.1857-0.34584,2.3022-1.0375,3.3495-0.69165,1.0473-1.6896,1.8575-2.9938,2.4306-1.3042,0.57307-2.7797,0.85961-4.4265,0.85961-2.727,0-4.8052-0.56648-6.2346-1.6994-1.4294-1.133-2.3417-2.8126-2.7369-5.039z"/>
   <path d="m960.7,443.86,0.51379,3.142c-1.0012,0.21078-1.8971,0.31618-2.6875,0.31618-1.2911,0-2.2923-0.2042-3.0037-0.61259-0.7114-0.4084-1.212-0.94523-1.5018-1.6105-0.28984-0.66528-0.43475-2.065-0.43475-4.1992v-12.074h-2.6084v-2.7665h2.6084v-5.1971l3.5372-2.1342v7.3313h3.5767v2.7665h-3.5767v12.272c-0.00001,1.0144,0.0626,1.6665,0.18773,1.9563,0.12514,0.28983,0.32934,0.52037,0.61259,0.69163,0.28323,0.17127,0.68833,0.2569,1.2153,0.25689,0.39521,0.00001,0.91558-0.0461,1.5611-0.13832z"/>
   <path d="m964,455.12-0.39522-3.3396c0.77726,0.21078,1.4557,0.31617,2.0354,0.31618,0.79043-0.00001,1.4228-0.13175,1.897-0.39522,0.47426-0.26348,0.86289-0.63235,1.1659-1.1066,0.22395-0.3557,0.58623-1.2384,1.0868-2.648,0.0659-0.19761,0.17125-0.48744,0.31618-0.86948l-7.9637-21.026h3.8336l4.3672,12.153c0.56647,1.5414,1.0737,3.1618,1.5216,4.8612,0.40838-1.6336,0.89582-3.2276,1.4623-4.7822l4.4857-12.232h3.557l-7.9834,21.342c-0.85632,2.3054-1.5216,3.8929-1.9959,4.7624-0.63236,1.1725-1.3569,2.0321-2.1737,2.5788-0.81679,0.54671-1.7917,0.82007-2.9246,0.82008-0.68505-0.00001-1.4491-0.14492-2.2923-0.43474z"/>
   <path d="m984.31,447.04,0-28.97,3.557,0,0,28.97z"/>
   <path d="m1007.8,440.28,3.6755,0.45451c-0.5797,2.1474-1.6533,3.8139-3.221,4.9995-1.5677,1.1857-3.5702,1.7785-6.0074,1.7785-3.0695,0-5.5034-0.94524-7.3016-2.8357s-2.6974-4.5417-2.6974-7.9538c0-3.5306,0.909-6.2708,2.727-8.2206,1.818-1.9497,4.1761-2.9246,7.0744-2.9246,2.8061,0.00002,5.0983,0.95513,6.8768,2.8653s2.6678,4.5977,2.6678,8.0625c0,0.21079-0.01,0.52697-0.02,0.94853h-15.651c0.13173,2.3054,0.78384,4.0708,1.9563,5.2959,1.1725,1.2252,2.6348,1.8378,4.3869,1.8378,1.3042,0.00001,2.4174-0.34252,3.3396-1.0276,0.9222-0.68504,1.6533-1.7785,2.1935-3.2803zm-11.679-5.7504,11.718,0c-0.1581-1.7653-0.606-3.0893-1.3437-3.972-1.133-1.3701-2.6019-2.0551-4.4067-2.0551-1.6336,0.00002-3.007,0.54674-4.1202,1.6402s-1.7291,2.5558-1.8476,4.3869z"/>
   <path d="m1034.7,434.37-19.188,8.2008,0-3.5372,15.196-6.3037-15.196-6.2445,0-3.5372,19.188,8.102z"/>
  </g>
  <g style="letter-spacing:0px;word-spacing:0px;" stroke-width="0.71170264" font-weight="normal" transform="matrix(0.3018599,-0.3018599,0.3018599,0.3018599,-290.83102,594.31223)" line-height="125%" stroke="#000000" font-size="51.84385681px" font-style="normal" font-family="Sans" fill="#ffff00">
   <path d="m307.62,1351.9,0-4.2528,24.58-10.379,0,4.5313-19.492,7.9993,19.492,8.0753,0,4.5313z"/>
   <path d="m356.02,1364.8c-1.6876,1.4345-3.312,2.4471-4.873,3.0378-1.5611,0.5906-3.236,0.886-5.0249,0.886-2.9534,0-5.2232-0.7215-6.8096-2.1644s-2.3796-3.2867-2.3796-5.5312c0-1.3163,0.29955-2.5188,0.89866-3.6073,0.5991-1.0885,1.3838-1.9619,2.3542-2.62,0.97038-0.6582,2.0631-1.156,3.2782-1.4936,0.89443-0.2362,2.2445-0.4641,4.0503-0.6835,3.679-0.4387,6.3876-0.9619,8.1259-1.5695,0.0169-0.6244,0.0253-1.021,0.0253-1.1897-0.00002-1.8564-0.43036-3.1643-1.291-3.9238-1.1645-1.0294-2.8943-1.5441-5.1894-1.5442-2.1433,0.0001-3.7254,0.3756-4.7464,1.1265-1.021,0.7511-1.7762,2.0801-2.2656,3.9871l-4.4553-0.6076c0.40502-1.907,1.0716-3.4469,1.9998-4.6199,0.92819-1.1728,2.2698-2.0757,4.025-2.7086,1.7551-0.6328,3.7887-0.9493,6.1008-0.9493,2.2952,0,4.16,0.2701,5.5945,0.8101s2.4892,1.2193,3.1643,2.0378c0.67503,0.8185,1.1476,1.8522,1.4176,3.101,0.15186,0.7763,0.2278,2.177,0.22783,4.2022v6.0754c-0.00003,4.236,0.097,6.9151,0.29111,8.0373,0.19405,1.1223,0.57799,2.1982,1.1518,3.2276h-4.7591c-0.47255-0.945-0.77633-2.0504-0.91131-3.3162zm-0.37972-10.176c-1.6539,0.675-4.1347,1.2488-7.4424,1.7213-1.8733,0.2701-3.1981,0.5738-3.9744,0.9114-0.77631,0.3375-1.3754,0.8311-1.7973,1.4808-0.42191,0.6498-0.63286,1.3713-0.63286,2.1644,0,1.2151,0.45987,2.2277,1.3796,3.0378,0.91974,0.81,2.2656,1.215,4.0376,1.215,1.7551,0,3.3162-0.3839,4.6832-1.1518,1.367-0.7678,2.3711-1.8184,3.0124-3.1516,0.48939-1.0294,0.7341-2.5483,0.73412-4.5566z"/>
   <path d="m391.34,1351.9-24.58,10.506,0-4.5313,19.467-8.0753-19.467-7.9993,0-4.5313,24.58,10.379z"/>
  </g>
  <g style="letter-spacing:0px;word-spacing:0px;" stroke-width="0.71170264" font-weight="normal" transform="matrix(0.3018599,-0.3018599,0.3018599,0.3018599,-290.83102,594.31223)" line-height="125%" stroke="#000000" font-size="77.95385742px" font-style="normal" font-family="Sans" fill="#008000">
   <path d="m39.012,1028.5,0-6.3946,36.96-15.606,0,6.8133-29.309,12.028,29.309,12.142,0,6.8133z"/>
   <path d="m82.671,1040.9,6.7753-1.0658c0.38062,2.7152,1.4401,4.796,3.1783,6.2424s4.1679,2.1696,7.2891,2.1696c3.1465,0,5.4811-0.6407,7.0037-1.9222,1.5225-1.2814,2.2838-2.7849,2.2838-4.5105-0.00003-1.5479-0.67248-2.7659-2.0174-3.6541-0.93892-0.609-3.2735-1.3829-7.0037-2.3219-5.0244-1.2687-8.5072-2.3662-10.448-3.2924-1.9412-0.9262-3.413-2.2077-4.4154-3.8444-1.0023-1.6367-1.5035-3.4448-1.5035-5.4241-0.000004-1.8016,0.41235-3.4701,1.2371-5.0053,0.8247-1.5352,1.9476-2.8103,3.3686-3.8254,1.0658-0.7866,2.5185-1.4527,4.3583-1.9983,1.8397-0.5456,3.8127-0.8183,5.9189-0.8184,3.1719,0.0001,5.9569,0.4568,8.3549,1.3703,2.398,0.9136,4.1679,2.1506,5.3098,3.7112s1.9285,3.6478,2.3599,6.2614l-6.6992,0.9135c-0.30454-2.0807-1.1863-3.7048-2.6454-4.8721-1.4591-1.1672-3.5209-1.7509-6.1853-1.7509-3.1466,0-5.3923,0.5202-6.7372,1.5606s-2.0174,2.2585-2.0174,3.6541c-0.00001,0.8882,0.27912,1.6875,0.8374,2.398,0.55825,0.7359,1.4337,1.3449,2.6264,1.827,0.68513,0.2538,2.7025,0.8374,6.0521,1.7509,4.8467,1.2942,8.228,2.3537,10.144,3.1783,1.9158,0.8248,3.4193,2.0238,4.5105,3.597,1.0911,1.5733,1.6367,3.5273,1.6367,5.8618-0.00003,2.2838-0.66614,4.4344-1.9983,6.4517-1.3322,2.0174-3.2544,3.578-5.7666,4.6818-2.5122,1.1039-5.3543,1.6558-8.5262,1.6558-5.2528,0-9.2558-1.0911-12.009-3.2735-2.7533-2.1822-4.5105-5.4176-5.2718-9.7061z"/>
   <path d="m124.39,1068.4,0-55.915,6.2424,0,0,5.2528c1.4718-2.0554,3.1339-3.597,4.9863-4.6247s4.0981-1.5415,6.7372-1.5416c3.4511,0.0001,6.4961,0.8882,9.1352,2.6645,2.639,1.7763,4.631,4.2821,5.976,7.5175,1.3449,3.2354,2.0173,6.7816,2.0174,10.639-0.00004,4.1362-0.74227,7.8601-2.2267,11.172-1.4845,3.3115-3.6414,5.8491-6.4708,7.6127s-5.8047,2.6454-8.9259,2.6454c-2.2838,0-4.3329-0.4821-6.1472-1.4464-1.8144-0.9643-3.3052-2.1823-4.4724-3.6541v19.679zm6.2043-35.475c-0.00001,5.202,1.0531,9.0464,3.1593,11.533,2.1062,2.4868,4.6564,3.7302,7.6508,3.7302,3.045,0,5.6524-1.2878,7.822-3.8634s3.2544-6.5659,3.2544-11.971c-0.00004-5.1512-1.0595-9.0083-3.1783-11.571-2.1189-2.5629-4.6501-3.8444-7.5936-3.8444-2.9182,0-5.5002,1.3639-7.7459,4.0918-2.2458,2.7279-3.3686,6.6928-3.3686,11.895z"/>
   <path d="m194.16,1047.9c-2.5376,2.1569-4.98,3.6794-7.3272,4.5676-2.3473,0.8881-4.8658,1.3322-7.5556,1.3322-4.4407,0-7.8538-1.0848-10.239-3.2544-2.3853-2.1696-3.578-4.9419-3.578-8.3169,0-1.9793,0.45042-3.7873,1.3512-5.424,0.90083-1.6367,2.0808-2.9499,3.5399-3.9396,1.4591-0.9896,3.1022-1.7382,4.9292-2.2457,1.3449-0.3552,3.3749-0.6978,6.0902-1.0277,5.5318-0.6598,9.6046-1.4464,12.218-2.36,0.0254-0.9388,0.038-1.5352,0.0381-1.7889-0.00003-2.7913-0.6471-4.7579-1.9412-5.8999-1.7509-1.5478-4.3519-2.3218-7.803-2.3218-3.2227,0-5.6017,0.5646-7.1369,1.6938s-2.6708,3.1276-3.4067,5.995l-6.6992-0.9135c0.60901-2.8675,1.6113-5.183,3.007-6.9466,1.3956-1.7636,3.413-3.1212,6.0521-4.0728,2.639-0.9515,5.6968-1.4273,9.1733-1.4274,3.4511,0.0001,6.2551,0.4061,8.412,1.218,2.1569,0.8121,3.7429,1.8335,4.7579,3.0642s1.7255,2.785,2.1316,4.6627c0.22834,1.1673,0.34253,3.2735,0.34257,6.3185v9.1353c-0.00004,6.3693,0.14587,10.398,0.43773,12.085,0.29178,1.6875,0.86907,3.3052,1.7319,4.8531h-7.1559c-0.71054-1.4211-1.1673-3.0832-1.3703-4.9863zm-0.57095-15.302c-2.4868,1.015-6.217,1.8778-11.191,2.5883-2.8167,0.406-4.8087,0.8628-5.976,1.3703s-2.0681,1.2497-2.7025,2.2267-0.95159,2.0618-0.95158,3.2544c-0.00001,1.8271,0.69147,3.3496,2.0744,4.5676,1.383,1.2181,3.4067,1.8271,6.0711,1.8271,2.639,0,4.9863-0.5773,7.0417-1.7319s3.5652-2.7342,4.5295-4.7389c0.73586-1.5479,1.1038-3.8317,1.1038-6.8514z"/>
   <path d="m211.17,1052.9,0-40.423,6.1663,0,0,5.7476c2.9689-4.4407,7.2574-6.661,12.865-6.6611,2.436,0.0001,4.6754,0.4378,6.7182,1.3132,2.0427,0.8755,3.5716,2.0237,4.5866,3.4447,1.015,1.4211,1.7255,3.1086,2.1316,5.0625,0.25372,1.2688,0.3806,3.4892,0.38064,6.6611v24.855h-6.8514v-24.589c-0.00004-2.7913-0.26648-4.8784-0.79934-6.2614-0.53291-1.3829-1.4782-2.4868-2.8357-3.3115-1.3576-0.8247-2.9499-1.2371-4.777-1.2371-2.9182,0-5.4367,0.9263-7.5556,2.7786-2.1189,1.8525-3.1783,5.367-3.1783,10.544v22.077z"/>
   <path d="m290.65,1028.5-36.96,15.796,0-6.8133,29.271-12.142-29.271-12.028,0-6.8133,36.96,15.606z"/>
  </g>
  <g style="letter-spacing:0px;word-spacing:0px;" stroke-width="0.97377884" font-weight="normal" font-size="76.30487823px" transform="matrix(0.42689436,0,0,0.42689436,-290.83102,594.31223)" stroke="#000000" line-height="125%" font-style="normal" font-family="Sans" fill="#ffff00">
   <path d="m856.98,391.54,0-6.2594,36.178-15.276,0,6.6692-28.689,11.774,28.689,11.885,0,6.6692z"/>
   <path d="m902.4,415.43,0-54.621,6.7065,0,0,19.598c3.1297-3.6264,7.079-5.4397,11.848-5.4397,2.931,0.00004,5.4769,0.57754,7.6379,1.7325s3.7072,2.7509,4.6386,4.7877c0.93142,2.0368,1.3972,4.9926,1.3972,8.8675v25.075h-6.7065v-25.075c-0.00003-3.3532-0.72656-5.7936-2.1796-7.3212-1.4531-1.5276-3.5085-2.2914-6.1662-2.2914-1.9871,0.00004-3.8562,0.51544-5.6074,1.5462s-2.9993,2.428-3.7444,4.1916c-0.74518,1.7636-1.1178,4.1978-1.1178,7.3026v21.647z"/>
   <path d="m971.96,402.68,6.93,0.85694c-1.093,4.0487-3.1173,7.1908-6.0731,9.4263s-6.7314,3.3532-11.326,3.3532c-5.7875,0-10.376-1.7822-13.767-5.3466-3.3905-3.5644-5.0858-8.5632-5.0858-14.996-0.00001-6.6568,1.7139-11.823,5.1416-15.499,3.4278-3.6761,7.8739-5.5142,13.338-5.5142,5.2906,0.00004,9.6126,1.8008,12.966,5.4024,3.3532,3.6017,5.0298,8.6688,5.0299,15.201-0.00003,0.39744-0.0125,0.99358-0.0372,1.7884h-29.509c0.24838,4.3468,1.4779,7.6752,3.6886,9.9852,2.2106,2.31,4.9678,3.465,8.2713,3.465,2.459,0.00001,4.5579-0.6458,6.2966-1.9374s3.1172-3.3532,4.1357-6.1849zm-22.02-10.842,22.094,0c-0.2981-3.3284-1.1426-5.8247-2.5336-7.4889-2.1362-2.5832-4.9057-3.8748-8.3086-3.8748-3.08,0.00003-5.6695,1.0308-7.7683,3.0924-2.0989,2.0616-3.2601,4.8188-3.4836,8.2713z"/>
   <path d="m1013.2,410.55c-2.4839,2.1113-4.8746,3.6016-7.1722,4.471-2.2976,0.86935-4.7628,1.304-7.3957,1.304-4.3468,0-7.6876-1.0619-10.022-3.1856-2.3349-2.1237-3.5023-4.8374-3.5023-8.1409,0-1.9374,0.44089-3.7072,1.3227-5.3093,0.88177-1.6021,2.0368-2.8875,3.465-3.8562,1.4282-0.96869,3.0365-1.7014,4.8249-2.1982,1.3164-0.34772,3.3036-0.68304,5.9614-1.006,5.4148-0.64578,9.4014-1.4158,11.96-2.31,0.025-0.91901,0.037-1.5027,0.037-1.7511,0-2.7322-0.6334-4.6572-1.9001-5.775-1.714-1.5151-4.2599-2.2727-7.638-2.2728-3.1545,0.00004-5.4832,0.5527-6.9859,1.658-1.5028,1.1054-2.6143,3.0614-3.3346,5.8682l-6.5574-0.8942c0.59613-2.8068,1.5773-5.0733,2.9434-6.7996s3.3408-3.0551,5.9241-3.9866c2.5832-0.93142,5.5763-1.3971,8.9792-1.3972,3.3781,0.00004,6.1228,0.39746,8.2341,1.1923,2.1113,0.79488,3.6637,1.7946,4.6573,2.9993,0.9935,1.2047,1.689,2.7261,2.0864,4.5641,0.2236,1.1426,0.3353,3.2042,0.3354,6.1849v8.942c-0.0001,6.2346,0.1428,10.178,0.4284,11.829,0.2856,1.6518,0.8507,3.2353,1.6953,4.7504h-7.0046c-0.6955-1.391-1.1426-3.0179-1.3413-4.8808zm-0.5588-14.978c-2.4343,0.99358-6.0856,1.8381-10.954,2.5336-2.7571,0.39744-4.7069,0.84454-5.8495,1.3413-1.1426,0.49679-2.0244,1.2233-2.6453,2.1796-0.62098,0.95631-0.93146,2.0182-0.93145,3.1856-0.00001,1.7884,0.67684,3.2787,2.0306,4.471,1.3537,1.1923,3.3346,1.7884,5.9427,1.7884,2.5832,0.00001,4.8808-0.56508,6.8927-1.6952,2.012-1.1302,3.4899-2.6764,4.4338-4.6386,0.7203-1.5152,1.0804-3.7506,1.0805-6.7065z"/>
   <path d="m1055.5,415.43,0-4.9926c-2.5087,3.9245-6.1973,5.8868-11.066,5.8868-3.1545,0-6.0545-0.86936-8.6998-2.6081s-4.6945-4.1667-6.1476-7.284-2.1796-6.7003-2.1796-10.749c0-3.9494,0.6582-7.5324,1.9747-10.749,1.3164-3.2166,3.2911-5.6818,5.924-7.3958,2.6329-1.7138,5.5763-2.5708,8.8302-2.5708,2.3845,0.00004,4.5083,0.50302,6.3712,1.509s3.378,2.3163,4.5455,3.9308v-19.598h6.6692v54.621zm-21.2-19.747c0,5.0671,1.068,8.855,3.2042,11.364,2.1361,2.5087,4.6572,3.7631,7.5634,3.7631,2.931,0.00001,5.421-1.1985,7.4703-3.5954,2.0491-2.3969,3.0737-6.0544,3.0738-10.973-0.0001-5.4148-1.0433-9.389-3.1297-11.923-2.0865-2.5335-4.6573-3.8003-7.7125-3.8003-2.9806,0.00004-5.4707,1.2171-7.4703,3.6513-1.9995,2.4342-2.9992,6.2718-2.9992,11.513z"/>
   <path d="m1107.6,391.54-36.178,15.462,0-6.6692,28.652-11.885-28.652-11.774,0-6.6692,36.178,15.276z"/>
  </g>
  <g style="letter-spacing:0px;word-spacing:0px;" stroke-width="0.97377884" font-weight="normal" transform="matrix(0,0.42689436,-0.42689436,0,-290.83102,594.31223)" line-height="125%" stroke="#000000" font-size="76.30487823px" font-style="normal" font-family="Sans" fill="#ffff00">
   <path d="m130.06-1110.9,0-6.2594,36.178-15.276,0,6.6692-28.689,11.774,28.689,11.885,0,6.6692z"/>
   <path d="m175.47-1087,0-54.621,6.7065,0,0,19.598c3.1297-3.6264,7.079-5.4396,11.848-5.4397,2.931,0.0001,5.4769,0.5776,7.6379,1.7325,2.1609,1.1551,3.7072,2.751,4.6386,4.7877,0.93142,2.0368,1.3971,4.9926,1.3972,8.8675v25.075h-6.7065v-25.075c-0.00003-3.3532-0.72657-5.7937-2.1796-7.3213-1.4531-1.5275-3.5085-2.2913-6.1662-2.2914-1.9871,0.0001-3.8562,0.5155-5.6074,1.5463s-2.9993,2.428-3.7445,4.1915c-0.74517,1.7636-1.1178,4.1978-1.1177,7.3026v21.647z"/>
   <path d="m245.04-1099.7,6.93,0.857c-1.093,4.0487-3.1173,7.1908-6.0731,9.4263s-6.7313,3.3533-11.326,3.3533c-5.7875,0-10.376-1.7822-13.767-5.3466-3.3905-3.5644-5.0858-8.5632-5.0858-14.996,0-6.6568,1.7139-11.823,5.1416-15.5,3.4277-3.6761,7.8739-5.5141,13.338-5.5142,5.2906,0.0001,9.6126,1.8009,12.966,5.4025,3.3532,3.6016,5.0298,8.6687,5.0299,15.201-0.00004,0.3975-0.0125,0.9936-0.0373,1.7884h-29.509c0.24838,4.3468,1.4779,7.6752,3.6886,9.9852,2.2106,2.31,4.9678,3.465,8.2713,3.465,2.459,0,4.5579-0.6458,6.2966-1.9374s3.1172-3.3532,4.1357-6.1849zm-22.02-10.842,22.094,0c-0.2981-3.3284-1.1426-5.8247-2.5336-7.4889-2.1362-2.5832-4.9057-3.8748-8.3086-3.8749-3.08,0.0001-5.6695,1.0309-7.7683,3.0925-2.0989,2.0616-3.2601,4.8187-3.4836,8.2713z"/>
   <path d="m286.24-1091.9c-2.4839,2.1113-4.8746,3.6017-7.1722,4.471-2.2976,0.8694-4.7629,1.3041-7.3958,1.3041-4.3468,0-7.6876-1.0619-10.022-3.1856-2.3348-2.1237-3.5023-4.8374-3.5023-8.1409-0.00001-1.9375,0.44088-3.7072,1.3227-5.3093,0.88178-1.6021,2.0368-2.8875,3.465-3.8563,1.4282-0.9687,3.0365-1.7014,4.8249-2.1982,1.3164-0.3477,3.3036-0.6831,5.9613-1.006,5.4148-0.6458,9.4015-1.4158,11.96-2.31,0.0248-0.919,0.0372-1.5027,0.0373-1.7511-0.00003-2.7323-0.63342-4.6573-1.9002-5.7751-1.7139-1.5151-4.2599-2.2727-7.6379-2.2727-3.1546,0-5.4832,0.5527-6.9859,1.658-1.5028,1.1053-2.6143,3.0614-3.3346,5.8682l-6.5574-0.8942c0.59613-2.8068,1.5773-5.0733,2.9434-6.7997,1.3661-1.7262,3.3408-3.0551,5.9241-3.9866,2.5832-0.9314,5.5763-1.3971,8.9792-1.3972,3.3781,0.0001,6.1227,0.3975,8.2341,1.1923,2.1113,0.7949,3.6637,1.7946,4.6573,2.9993,0.99352,1.2047,1.689,2.7261,2.0865,4.5641,0.22352,1.1426,0.33529,3.2042,0.33533,6.1849v8.9419c-0.00004,6.2346,0.14278,10.178,0.42847,11.83,0.28561,1.6518,0.85069,3.2353,1.6952,4.7505h-7.0046c-0.69552-1.391-1.1426-3.018-1.3413-4.8809zm-0.55887-14.978c-2.4342,0.9936-6.0855,1.8381-10.954,2.5336-2.7571,0.3974-4.707,0.8445-5.8495,1.3413-1.1426,0.4968-2.0244,1.2233-2.6453,2.1796-0.62099,0.9563-0.93147,2.0182-0.93146,3.1856-0.00001,1.7884,0.67685,3.2787,2.0306,4.471,1.3537,1.1922,3.3346,1.7884,5.9427,1.7883,2.5832,0.0001,4.8808-0.565,6.8928-1.6952,2.0119-1.1302,3.4898-2.6764,4.4337-4.6387,0.72029-1.5151,1.0805-3.7506,1.0805-6.7064z"/>
   <path d="m328.57-1087,0-4.9926c-2.5088,3.9245-6.1973,5.8868-11.066,5.8868-3.1546,0-6.0545-0.8694-8.6998-2.6081-2.6454-1.7387-4.6946-4.1667-6.1476-7.284-1.4531-3.1173-2.1796-6.7003-2.1796-10.749,0-3.9494,0.65823-7.5324,1.9747-10.749,1.3164-3.2166,3.2911-5.6819,5.9241-7.3958,2.6329-1.7138,5.5763-2.5707,8.8302-2.5708,2.3845,0.0001,4.5082,0.503,6.3712,1.509,1.8629,1.006,3.378,2.3162,4.5455,3.9307v-19.598h6.6692v54.621zm-21.2-19.747c-0.00001,5.0671,1.0681,8.855,3.2042,11.364,2.1361,2.5087,4.6573,3.763,7.5634,3.763,2.931,0,5.421-1.1984,7.4703-3.5954,2.0492-2.3969,3.0738-6.0544,3.0738-10.972-0.00003-5.4149-1.0433-9.3891-3.1297-11.923-2.0865-2.5335-4.6573-3.8003-7.7125-3.8003-2.9807,0-5.4708,1.2171-7.4703,3.6513s-2.9993,6.2718-2.9993,11.513z"/>
   <path d="m380.69-1110.9-36.178,15.462,0-6.6692,28.652-11.885-28.652-11.774,0-6.6692,36.178,15.276z"/>
  </g>
  <g style="letter-spacing:0px;word-spacing:0px;" stroke-width="0.97377884" font-weight="normal" transform="matrix(0,-0.42689436,0.42689436,0,-290.83102,594.31223)" line-height="125%" stroke="#000000" font-size="76.30487823px" font-style="normal" font-family="Sans" fill="#ffff00">
   <path d="m-376.84,838.82,0-6.2594,36.178-15.276,0,6.6692-28.689,11.774,28.689,11.885,0,6.6692z"/>
   <path d="m-331.42,862.7,0-54.621,6.7065,0,0,19.598c3.1297-3.6264,7.079-5.4397,11.848-5.4397,2.931,0.00004,5.4769,0.57754,7.6379,1.7325,2.1609,1.155,3.7072,2.7509,4.6386,4.7877,0.93142,2.0368,1.3972,4.9926,1.3972,8.8675v25.075h-6.7065v-25.075c-0.00003-3.3532-0.72656-5.7936-2.1796-7.3212-1.4531-1.5276-3.5085-2.2914-6.1662-2.2914-1.9871,0.00003-3.8562,0.51544-5.6074,1.5462s-2.9993,2.428-3.7444,4.1916c-0.74518,1.7636-1.1178,4.1978-1.1178,7.3026v21.647z"/>
   <path d="m-261.86,849.96,6.93,0.85694c-1.0929,4.0487-3.1173,7.1908-6.0731,9.4263s-6.7314,3.3532-11.327,3.3532c-5.7875,0-10.376-1.7822-13.767-5.3466-3.3905-3.5644-5.0858-8.5632-5.0858-14.996,0-6.6568,1.7139-11.823,5.1416-15.499,3.4278-3.6761,7.8739-5.5142,13.338-5.5142,5.2906,0.00004,9.6126,1.8008,12.966,5.4024,3.3532,3.6017,5.0298,8.6688,5.0299,15.201-0.00004,0.39744-0.0125,0.99357-0.0373,1.7884h-29.509c0.24837,4.3468,1.4779,7.6752,3.6886,9.9852,2.2106,2.31,4.9678,3.465,8.2713,3.465,2.459,0,4.5579-0.64581,6.2966-1.9374s3.1172-3.3532,4.1357-6.1849zm-22.02-10.842,22.094,0c-0.2981-3.3284-1.1426-5.8247-2.5336-7.4889-2.1362-2.5832-4.9057-3.8748-8.3086-3.8749-3.08,0.00004-5.6695,1.0308-7.7684,3.0924-2.0989,2.0617-3.2601,4.8188-3.4836,8.2713z"/>
   <path d="m-220.65,857.82c-2.4839,2.1113-4.8746,3.6016-7.1722,4.471-2.2976,0.86936-4.7629,1.304-7.3958,1.304-4.3468,0-7.6876-1.0619-10.022-3.1856-2.3349-2.1237-3.5023-4.8374-3.5023-8.1409,0-1.9374,0.44089-3.7072,1.3227-5.3093,0.88177-1.6021,2.0368-2.8875,3.465-3.8562s3.0365-1.7014,4.825-2.1982c1.3164-0.34772,3.3036-0.68305,5.9613-1.006,5.4148-0.64579,9.4015-1.4158,11.96-2.31,0.0248-0.91901,0.0372-1.5027,0.0373-1.7511-0.00003-2.7322-0.63342-4.6572-1.9002-5.775-1.7139-1.5151-4.2599-2.2727-7.6379-2.2728-3.1546,0.00003-5.4832,0.5527-6.9859,1.658-1.5028,1.1054-2.6143,3.0614-3.3346,5.8682l-6.5574-0.89419c0.59612-2.8068,1.5773-5.0733,2.9434-6.7996s3.3408-3.0551,5.9241-3.9866c2.5832-0.93141,5.5763-1.3971,8.9792-1.3972,3.3781,0.00004,6.1228,0.39746,8.2341,1.1923,2.1113,0.79489,3.6637,1.7946,4.6573,2.9993,0.99351,1.2047,1.689,2.7261,2.0865,4.5641,0.22351,1.1426,0.33528,3.2042,0.33532,6.1849v8.942c-0.00004,6.2346,0.14279,10.178,0.42847,11.83,0.28561,1.6518,0.85069,3.2352,1.6952,4.7504h-7.0046c-0.69552-1.391-1.1426-3.0179-1.3413-4.8808zm-0.55887-14.978c-2.4342,0.99357-6.0855,1.8381-10.954,2.5336-2.7571,0.39744-4.707,0.84454-5.8496,1.3413-1.1426,0.49679-2.0244,1.2233-2.6453,2.1796-0.62098,0.95631-0.93147,2.0182-0.93146,3.1856-0.00001,1.7884,0.67685,3.2787,2.0306,4.471,1.3537,1.1923,3.3346,1.7884,5.9427,1.7884,2.5832,0,4.8808-0.56508,6.8928-1.6952,2.0119-1.1302,3.4898-2.6764,4.4337-4.6386,0.7203-1.5152,1.0805-3.7506,1.0805-6.7065z"/>
   <path d="m-178.33,862.7,0-4.9926c-2.5088,3.9245-6.1973,5.8868-11.066,5.8868-3.1546,0-6.0545-0.86936-8.6998-2.6081s-4.6945-4.1667-6.1476-7.284-2.1796-6.7003-2.1796-10.749c0-3.9494,0.65823-7.5323,1.9747-10.749,1.3164-3.2166,3.2911-5.6818,5.9241-7.3958,2.6329-1.7138,5.5763-2.5708,8.8302-2.5708,2.3845,0.00004,4.5082,0.50303,6.3712,1.509,1.8629,1.006,3.378,2.3163,4.5455,3.9307v-19.598h6.6692v54.621zm-21.2-19.747c-0.00001,5.0671,1.0681,8.8551,3.2042,11.364,2.1361,2.5087,4.6573,3.7631,7.5634,3.7631,2.931,0,5.421-1.1985,7.4703-3.5954,2.0492-2.3969,3.0738-6.0544,3.0738-10.973-0.00003-5.4148-1.0433-9.389-3.1297-11.923-2.0865-2.5335-4.6573-3.8003-7.7125-3.8003-2.9807,0.00003-5.4708,1.2171-7.4703,3.6513s-2.9993,6.2718-2.9993,11.513z"/>
   <path d="m-126.2,838.82-36.178,15.462,0-6.6692,28.652-11.885-28.652-11.774,0-6.6692,36.178,15.276z"/>
  </g>
  <g style="letter-spacing:0px;word-spacing:0px;" stroke-width="0.97377884" font-weight="normal" font-size="76.30487823px" transform="matrix(0.42689436,0,0,0.42689436,-290.83102,594.31223)" stroke="#000000" line-height="125%" font-style="normal" font-family="Sans" fill="#ffff00">
   <path d="m843.36,134.47,0-6.2594,36.178-15.276,0,6.6692-28.689,11.774,28.689,11.885,0,6.6692z"/>
   <path d="m888.77,158.35,0-54.621,6.7065,0,0,19.598c3.1297-3.6264,7.079-5.4397,11.848-5.4397,2.931,0.00004,5.4769,0.57754,7.6379,1.7325,2.1609,1.155,3.7072,2.7509,4.6386,4.7877,0.93142,2.0368,1.3971,4.9926,1.3972,8.8675v25.075h-6.7065v-25.075c-0.00003-3.3532-0.72657-5.7936-2.1796-7.3212-1.4531-1.5276-3.5085-2.2914-6.1662-2.2914-1.9871,0.00004-3.8562,0.51544-5.6074,1.5462s-2.9993,2.428-3.7445,4.1916c-0.74517,1.7636-1.1178,4.1978-1.1177,7.3026v21.647z"/>
   <path d="m958.34,145.61,6.93,0.85694c-1.093,4.0487-3.1173,7.1908-6.0731,9.4263s-6.7314,3.3532-11.327,3.3532c-5.7875,0-10.376-1.7822-13.767-5.3466-3.3905-3.5644-5.0858-8.5632-5.0858-14.996,0-6.6568,1.7139-11.823,5.1416-15.499,3.4277-3.6761,7.8739-5.5142,13.338-5.5142,5.2906,0.00004,9.6126,1.8008,12.966,5.4024,3.3532,3.6017,5.0298,8.6688,5.0299,15.201-0.00004,0.39744-0.0125,0.99358-0.0373,1.7884h-29.509c0.24838,4.3468,1.4779,7.6752,3.6886,9.9852,2.2106,2.31,4.9678,3.465,8.2713,3.465,2.459,0.00001,4.5579-0.6458,6.2966-1.9374s3.1172-3.3532,4.1357-6.1849zm-22.02-10.842,22.094,0c-0.29809-3.3284-1.1426-5.8247-2.5336-7.4889-2.1362-2.5832-4.9057-3.8748-8.3086-3.8748-3.08,0.00003-5.6695,1.0308-7.7683,3.0924-2.0989,2.0616-3.2601,4.8188-3.4836,8.2713z"/>
   <path d="m999.54,153.47c-2.4839,2.1113-4.8746,3.6016-7.1722,4.471-2.2976,0.86935-4.7629,1.304-7.3958,1.304-4.3468,0-7.6876-1.0619-10.022-3.1856-2.3348-2.1237-3.5023-4.8374-3.5023-8.1409,0-1.9374,0.44088-3.7072,1.3227-5.3093,0.88177-1.6021,2.0368-2.8875,3.465-3.8562,1.4282-0.96869,3.0365-1.7014,4.8249-2.1982,1.3164-0.34773,3.3036-0.68305,5.9613-1.006,5.4148-0.64578,9.4015-1.4158,11.96-2.31,0.0248-0.91901,0.0372-1.5027,0.0373-1.7511-0.00003-2.7322-0.63342-4.6572-1.9002-5.775-1.7139-1.5151-4.2599-2.2727-7.6379-2.2728-3.1546,0.00004-5.4832,0.5527-6.9859,1.658-1.5028,1.1054-2.6143,3.0614-3.3346,5.8682l-6.5574-0.8942c0.59613-2.8068,1.5773-5.0733,2.9434-6.7996s3.3408-3.0551,5.9241-3.9866c2.5832-0.93142,5.5763-1.3971,8.9792-1.3972,3.3781,0.00004,6.1227,0.39746,8.2341,1.1923,2.1113,0.79488,3.6637,1.7946,4.6573,2.9993,0.9935,1.2047,1.689,2.7261,2.0864,4.5641,0.2235,1.1426,0.3353,3.2042,0.3353,6.1849v8.942c0,6.2346,0.1428,10.178,0.4285,11.829,0.2856,1.6518,0.8507,3.2353,1.6953,4.7504h-7.0046c-0.6955-1.391-1.1426-3.0179-1.3412-4.8808zm-0.55887-14.978c-2.4342,0.99358-6.0855,1.8381-10.954,2.5336-2.7571,0.39744-4.707,0.84454-5.8496,1.3413-1.1426,0.49679-2.0244,1.2233-2.6453,2.1796-0.62098,0.95631-0.93147,2.0182-0.93146,3.1856-0.00001,1.7884,0.67685,3.2787,2.0306,4.471,1.3537,1.1923,3.3346,1.7884,5.9427,1.7884,2.5832,0.00001,4.8808-0.56508,6.8928-1.6952,2.0119-1.1302,3.4898-2.6764,4.4337-4.6386,0.7203-1.5152,1.0805-3.7506,1.0805-6.7065z"/>
   <path d="m1041.9,158.35,0-4.9926c-2.5088,3.9245-6.1973,5.8868-11.066,5.8868-3.1546,0-6.0545-0.86935-8.6998-2.6081-2.6454-1.7387-4.6946-4.1667-6.1476-7.284-1.4531-3.1173-2.1796-6.7003-2.1796-10.749,0-3.9494,0.6582-7.5324,1.9747-10.749,1.3164-3.2166,3.2911-5.6818,5.924-7.3958,2.6329-1.7138,5.5763-2.5708,8.8302-2.5708,2.3845,0.00004,4.5082,0.50302,6.3712,1.509,1.8629,1.006,3.378,2.3162,4.5455,3.9307v-19.598h6.6692v54.621zm-21.2-19.747c0,5.0671,1.0681,8.855,3.2043,11.364,2.1361,2.5087,4.6572,3.7631,7.5634,3.7631,2.9309,0.00001,5.421-1.1985,7.4703-3.5954,2.0491-2.3969,3.0737-6.0544,3.0738-10.973-0.0001-5.4148-1.0433-9.389-3.1297-11.923-2.0865-2.5335-4.6573-3.8003-7.7125-3.8004-2.9807,0.00004-5.4708,1.2171-7.4703,3.6513s-2.9993,6.2718-2.9993,11.513z"/>
   <path d="m1094,134.47-36.178,15.462,0-6.6692,28.652-11.885-28.652-11.774,0-6.6692,36.178,15.276z"/>
  </g>
  <g font-size="77.95385742px" font-family="Sans" font-weight="normal" style="letter-spacing:0px;word-spacing:0px;" transform="matrix(0.3018599,0.3018599,-0.3018599,0.3018599,-290.83102,594.31223)" stroke="#000000" line-height="125%" font-style="normal" stroke-width="0.71170264" fill="#008000">
   <path d="m1084.7-346.77,0-6.3946,36.96-15.606,0,6.8134-29.309,12.028,29.309,12.142,0,6.8134z"/>
   <path d="m1128.3-334.44,6.7753-1.0658c0.3806,2.7152,1.44,4.796,3.1783,6.2424,1.7382,1.4464,4.1679,2.1696,7.2891,2.1696,3.1466,0.00001,5.4811-0.64072,7.0037-1.9222,1.5225-1.2815,2.2838-2.785,2.2838-4.5105,0-1.5479-0.6725-2.7659-2.0174-3.6541-0.9389-0.609-3.2735-1.383-7.0036-2.3219-5.0244-1.2688-8.5072-2.3662-10.448-3.2925-1.9413-0.92619-3.4131-2.2077-4.4154-3.8444s-1.5035-3.4447-1.5035-5.424c0-1.8016,0.4123-3.4701,1.2371-5.0053,0.8247-1.5352,1.9475-2.8103,3.3686-3.8254,1.0657-0.7866,2.5185-1.4527,4.3582-1.9983,1.8397-0.54553,3.8127-0.81832,5.9189-0.81836,3.1719,0.00004,5.9569,0.4568,8.3549,1.3703,2.398,0.91356,4.1679,2.1506,5.3098,3.7112s1.9286,3.6478,2.36,6.2614l-6.6992,0.91352c-0.3045-2.0808-1.1863-3.7048-2.6454-4.8721-1.4591-1.1672-3.5209-1.7509-6.1853-1.7509-3.1466,0.00004-5.3923,0.52024-6.7372,1.5606s-2.0174,2.2585-2.0174,3.6541c0,0.88817,0.2791,1.6875,0.8374,2.398,0.5583,0.73592,1.4337,1.3449,2.6264,1.827,0.6851,0.25378,2.7025,0.83742,6.0521,1.7509,4.8467,1.2942,8.228,2.3536,10.144,3.1783,1.9158,0.82473,3.4193,2.0237,4.5105,3.597,1.0911,1.5733,1.6367,3.5272,1.6367,5.8618,0,2.2838-0.6661,4.4344-1.9983,6.4518-1.3323,2.0174-3.2545,3.578-5.7666,4.6818-2.5122,1.1038-5.3543,1.6558-8.5262,1.6558-5.2528,0-9.2558-1.0912-12.009-3.2734-2.7533-2.1823-4.5105-5.4177-5.2718-9.7062z"/>
   <path d="m1170-306.88,0-55.915,6.2424,0,0,5.2528c1.4718-2.0554,3.1339-3.597,4.9863-4.6247s4.0981-1.5415,6.7372-1.5416c3.4511,0.00004,6.4961,0.88818,9.1352,2.6644,2.6391,1.7763,4.631,4.2822,5.976,7.5175,1.3449,3.2354,2.0173,6.7816,2.0173,10.639,0,4.1362-0.7422,7.8601-2.2267,11.172-1.4845,3.3115-3.6414,5.8491-6.4707,7.6127-2.8295,1.7636-5.8047,2.6454-8.9259,2.6454-2.2838,0-4.3329-0.48214-6.1473-1.4464-1.8143-0.96427-3.3051-2.1823-4.4724-3.6541v19.679zm6.2043-35.475c0,5.202,1.0531,9.0464,3.1593,11.533,2.1061,2.4868,4.6564,3.7302,7.6507,3.7302,3.0451,0.00001,5.6524-1.2878,7.8221-3.8634,2.1695-2.5756,3.2543-6.5659,3.2544-11.971-0.0001-5.1512-1.0595-9.0083-3.1783-11.571-2.1189-2.5629-4.6501-3.8444-7.5937-3.8444-2.9182,0.00003-5.5001,1.364-7.7459,4.0918-2.2457,2.7279-3.3686,6.6928-3.3686,11.895z"/>
   <path d="m1239.8-327.36c-2.5376,2.1569-4.98,3.6795-7.3272,4.5676-2.3473,0.88815-4.8658,1.3322-7.5556,1.3322-4.4407,0-7.8537-1.0848-10.239-3.2544s-3.578-4.9419-3.578-8.3169c0-1.9793,0.4504-3.7873,1.3513-5.424,0.9008-1.6367,2.0808-2.9499,3.5399-3.9396,1.459-0.98963,3.1021-1.7382,4.9292-2.2458,1.3449-0.35523,3.3749-0.6978,6.0901-1.0277,5.5319-0.65974,9.6046-1.4464,12.218-2.3599,0.025-0.93887,0.038-1.5352,0.038-1.789,0-2.7913-0.6471-4.7579-1.9412-5.8998-1.751-1.5479-4.3519-2.3218-7.803-2.3219-3.2227,0.00004-5.6017,0.56465-7.1369,1.6938s-2.6708,3.1276-3.4067,5.995l-6.6991-0.91352c0.609-2.8674,1.6113-5.1829,3.007-6.9466,1.3956-1.7636,3.413-3.1212,6.0521-4.0728,2.639-0.95155,5.6968-1.4273,9.1732-1.4274,3.4511,0.00004,6.2551,0.40605,8.4121,1.218,2.1569,0.81206,3.7428,1.8334,4.7579,3.0641,1.015,1.2308,1.7255,2.785,2.1315,4.6628,0.2284,1.1673,0.3426,3.2735,0.3426,6.3185v9.1352c0,6.3693,0.1459,10.398,0.4377,12.085,0.2918,1.6875,0.8691,3.3052,1.7319,4.8531h-7.1559c-0.7106-1.421-1.1673-3.0831-1.3703-4.9863zm-0.5709-15.301c-2.4869,1.015-6.2171,1.8778-11.191,2.5883-2.8167,0.40603-4.8087,0.86279-5.9759,1.3703-1.1673,0.50752-2.0682,1.2498-2.7025,2.2267-0.6344,0.97698-0.9516,2.0618-0.9516,3.2544,0,1.827,0.6915,3.3496,2.0744,4.5676,1.383,1.218,3.4067,1.827,6.0711,1.827,2.6391,0,4.9863-0.57729,7.0418-1.7319,2.0554-1.1546,3.5652-2.7342,4.5295-4.7389,0.7359-1.5479,1.1038-3.8317,1.1039-6.8514z"/>
   <path d="m1256.8-322.37,0-40.423,6.1662,0,0,5.7476c2.969-4.4407,7.2574-6.661,12.866-6.6611,2.436,0.00004,4.6754,0.43777,6.7182,1.3132,2.0427,0.8755,3.5715,2.0238,4.5866,3.4447,1.015,1.4211,1.7255,3.1086,2.1315,5.0624,0.2538,1.2688,0.3806,3.4892,0.3807,6.6611v24.855h-6.8514v-24.589c-0.0001-2.7913-0.2665-4.8784-0.7994-6.2614-0.5329-1.3829-1.4781-2.4868-2.8357-3.3115-1.3576-0.82467-2.9499-1.237-4.7769-1.2371-2.9183,0.00003-5.4368,0.92624-7.5556,2.7786-2.1189,1.8524-3.1783,5.367-3.1783,10.544v22.077z"/>
   <path d="m1336.3-346.77-36.96,15.796,0-6.8134,29.271-12.142-29.271-12.028,0-6.8134,36.96,15.606z"/>
  </g>
  <g style="letter-spacing:0px;word-spacing:0px;" stroke-width="0.71170264" font-weight="normal" transform="matrix(0.3018599,0.3018599,-0.3018599,0.3018599,-290.83102,594.31223)" line-height="125%" stroke="#000000" font-size="51.84385681px" font-style="normal" font-family="Sans" fill="#ffff00">
   <path d="m983.99-23.198,0-4.2528,24.58-10.379,0,4.5313-19.492,7.9993,19.492,8.0753,0,4.5313z"/>
   <path d="m1032.4-10.287c-1.6876,1.4345-3.312,2.4471-4.873,3.0377-1.5611,0.59067-3.236,0.886-5.0249,0.886-2.9534-6E-7-5.2232-0.72146-6.8096-2.1644-1.5863-1.4429-2.3795-3.2866-2.3795-5.5312,0-1.3163,0.2995-2.5188,0.8986-3.6073s1.3839-1.9619,2.3543-2.62c0.9704-0.65816,2.0631-1.156,3.2782-1.4935,0.8944-0.23625,2.2445-0.46408,4.0503-0.68349,3.679-0.43877,6.3876-0.96193,8.1259-1.5695,0.017-0.6244,0.025-1.021,0.025-1.1898,0-1.8564-0.4303-3.1643-1.291-3.9237-1.1645-1.0294-2.8943-1.5442-5.1895-1.5442-2.1433,0.000023-3.7254,0.37552-4.7464,1.1265-1.021,0.75102-1.7762,2.08-2.2656,3.987l-4.4554-0.60754c0.405-1.907,1.0717-3.447,1.9999-4.6199,0.9281-1.1729,2.2698-2.0758,4.0249-2.7086,1.7552-0.63283,3.7888-0.94926,6.1008-0.94929,2.2952,0.000027,4.16,0.27005,5.5945,0.81006,1.4344,0.54007,2.4892,1.2193,3.1643,2.0378,0.675,0.81852,1.1475,1.8522,1.4176,3.101,0.1519,0.77633,0.2278,2.1771,0.2278,4.2022v6.0755c0,4.2359,0.097,6.915,0.2911,8.0373s0.578,2.1981,1.1518,3.2276h-4.7591c-0.4725-0.94507-0.7763-2.0505-0.9113-3.3162zm-0.3797-10.176c-1.6539,0.67506-4.1347,1.2489-7.4424,1.7214-1.8733,0.27003-3.1981,0.5738-3.9744,0.91132-0.7763,0.33754-1.3754,0.83117-1.7973,1.4809-0.4219,0.64974-0.6329,1.3712-0.6329,2.1644,0,1.2151,0.4599,2.2277,1.3797,3.0377,0.9197,0.81006,2.2656,1.2151,4.0376,1.2151,1.7551,0.000003,3.3162-0.38393,4.6832-1.1518,1.3669-0.76786,2.3711-1.8184,3.0124-3.1516,0.4894-1.0294,0.7341-2.5483,0.7341-4.5566z"/>
   <path d="m1067.7-23.198-24.58,10.505,0-4.5313,19.467-8.0753-19.467-7.9993,0-4.5313,24.58,10.379z"/>
  </g>
  <g style="letter-spacing:0px;word-spacing:0px;" stroke-width="0.71170264" font-weight="normal" transform="matrix(0.21344718,0.36970135,-0.36970135,0.21344718,-290.83102,594.31223)" line-height="125%" stroke="#000000" font-size="72.54838562px" font-style="normal" font-family="Sans" fill="#0000ff">
   <path d="m1163.8-453.23,0-5.9512,34.397-14.524,0,6.3409-27.276,11.194,27.276,11.3,0,6.3409z"/>
   <path d="m1204.5-441.75,6.3054-0.99188c0.3543,2.5269,1.3402,4.4634,2.9579,5.8095s3.8789,2.0192,6.7837,2.0192c2.9284,0.00001,5.1011-0.5963,6.5181-1.7889,1.4169-1.1926,2.1254-2.5918,2.1254-4.1978,0-1.4406-0.6259-2.5741-1.8775-3.4007-0.8738-0.56677-3.0465-1.2871-6.518-2.1609-4.676-1.1808-7.9173-2.2022-9.7239-3.0642-1.8066-0.86196-3.1764-2.0546-4.1092-3.5778s-1.3992-3.2058-1.3992-5.0479c0-1.6767,0.3837-3.2295,1.1513-4.6583,0.7675-1.4287,1.8125-2.6154,3.135-3.5601,0.9918-0.73206,2.3439-1.352,4.056-1.8598,1.7122-0.5077,3.5483-0.76157,5.5085-0.76161,2.9519,0.00004,5.5438,0.42512,7.7755,1.2753,2.2317,0.85021,3.8789,2.0015,4.9417,3.4538,1.0627,1.4524,1.7948,3.3948,2.1963,5.8272l-6.2347,0.85018c-0.2834-1.9365-1.104-3.4479-2.4619-4.5343-1.358-1.0863-3.2768-1.6295-5.7564-1.6295-2.9284,0.00003-5.0184,0.48416-6.2701,1.4524-1.2516,0.96828-1.8775,2.1018-1.8774,3.4007-0.0001,0.82659,0.2597,1.5705,0.7793,2.2317,0.5195,0.68489,1.3343,1.2517,2.4442,1.7004,0.6377,0.23618,2.5151,0.77935,5.6325,1.6295,4.5106,1.2044,7.6574,2.1904,9.4405,2.9579,1.7829,0.76754,3.1822,1.8834,4.1977,3.3476s1.5232,3.2826,1.5232,5.4553c0,2.1254-0.6199,4.1269-1.8597,6.0044-1.2399,1.8775-3.0288,3.3299-5.3668,4.3572s-4.983,1.5409-7.9349,1.541c-4.8886-0.00001-8.614-1.0155-11.176-3.0465-2.5624-2.031-4.1978-5.042-4.9062-9.0331z"/>
   <path d="m1267.8-444.3,6.2701,0.81475c-0.6849,4.3217-2.4384,7.7047-5.2605,10.149s-6.2878,3.6664-10.397,3.6664c-5.1483-0.00001-9.287-1.6826-12.416-5.0479-3.1291-3.3653-4.6937-8.1888-4.6937-14.471,0-4.0619,0.6731-7.6161,2.0192-10.663,1.3461-3.0464,3.3948-5.3313,6.1461-6.8545,2.7512-1.5232,5.7446-2.2848,8.98-2.2848,4.0855,0.00004,7.4272,1.0332,10.025,3.0996,2.5977,2.0664,4.2626,5.0007,4.9948,8.8029l-6.1992,0.95645c-0.5905-2.5269-1.6355-4.428-3.1351-5.7033-1.4996-1.2752-3.3121-1.9129-5.4376-1.9129-3.2118,0.00003-5.8213,1.1513-7.8287,3.4538-2.0073,2.3026-3.011,5.9454-3.011,10.928,0,5.0538,0.9682,8.7261,2.9048,11.017,1.9365,2.2908,4.4634,3.4361,7.5807,3.4361,2.5033,0.00001,4.5933-0.76751,6.2701-2.3026,1.6767-1.535,2.7394-3.8966,3.1881-7.0848z"/>
   <path d="m1279.5-430.52,0-37.62,5.7387,0,0,5.7033c1.4642-2.6686,2.8162-4.428,4.0561-5.2782,1.2398-0.85014,2.6036-1.2752,4.0914-1.2753,2.1491,0.00004,4.3336,0.6849,6.5535,2.0546l-2.1963,5.9158c-1.5587-0.92099-3.1173-1.3815-4.676-1.3815-1.3933,0.00004-2.645,0.41922-3.7549,1.2576-1.11,0.83839-1.9011,2.0015-2.3734,3.4893-0.7085,2.2672-1.0628,4.7468-1.0628,7.439v19.696z"/>
   <path d="m1303.8-475.12,0-7.3328,6.3763,0,0,7.3328zm0,44.599,0-37.62,6.3763,0,0,37.62z"/>
   <path d="m1319.9-416.1,0-52.038,5.8096,0,0,4.8885c1.3697-1.9129,2.9166-3.3475,4.6405-4.304,1.724-0.95641,3.814-1.4346,6.2701-1.4347,3.2117,0.00004,6.0457,0.8266,8.5017,2.4797,2.4561,1.6532,4.3099,3.9852,5.5616,6.9962,1.2516,3.0111,1.8775,6.3114,1.8775,9.901,0,3.8494-0.6908,7.3151-2.0723,10.397-1.3816,3.0819-3.3889,5.4435-6.0221,7.0848s-5.4022,2.462-8.3069,2.462c-2.1255-0.00001-4.0325-0.44871-5.721-1.3461-1.6886-0.8974-3.076-2.031-4.1623-3.4007v18.314zm5.7742-33.015c0,4.8413,0.98,8.4191,2.9402,10.733,1.9601,2.3144,4.3335,3.4716,7.1202,3.4716,2.8339,0.00001,5.2604-1.1985,7.2796-3.5955s3.0287-6.1106,3.0288-11.141c-0.0001-4.794-0.986-8.3837-2.9579-10.769-1.972-2.3852-4.3277-3.5778-7.0671-3.5778-2.7159,0.00004-5.1188,1.2694-7.2088,3.8081s-3.135,6.2287-3.135,11.07z"/>
   <path d="m1374.2-436.22,0.921,5.6324c-1.7948,0.37786-3.4007,0.56678-4.8177,0.56679-2.3144-0.00001-4.1092-0.36605-5.3844-1.0982-1.2753-0.73209-2.1727-1.6944-2.6923-2.8871-0.5195-1.1926-0.7793-3.7018-0.7793-7.5276v-21.644h-4.676v-4.9594h4.676v-9.3165l6.3409-3.8258v13.142h6.4118v4.9594h-6.4118v21.998c0,1.8184,0.1122,2.9874,0.3365,3.507,0.2244,0.51956,0.5904,0.93284,1.0982,1.2398,0.5077,0.30701,1.2339,0.46052,2.1786,0.46051,0.7084,0.00001,1.6413-0.0827,2.7985-0.24797z"/>
   <path d="m1414-453.23-34.397,14.701,0-6.3409,27.241-11.3-27.241-11.194,0-6.3409,34.397,14.524z"/>
  </g>
  <g style="letter-spacing:0px;word-spacing:0px;" stroke-width="0.71170264" font-weight="normal" transform="matrix(0.21344718,-0.36970135,0.36970135,0.21344718,-290.83102,594.31223)" line-height="125%" stroke="#000000" font-size="72.54838562px" font-style="normal" font-family="Sans" fill="#0000ff">
   <path d="m-440.27,1231.3,0-5.9513,34.397-14.524,0,6.3409-27.276,11.194,27.276,11.3,0,6.3409z"/>
   <path d="m-399.64,1242.8,6.3055-0.9918c0.35423,2.5269,1.3402,4.4634,2.9579,5.8095s3.8789,2.0192,6.7837,2.0192c2.9284,0,5.101-0.5963,6.518-1.7889,1.4169-1.1926,2.1254-2.5919,2.1254-4.1978-0.00002-1.4405-0.62585-2.5741-1.8775-3.4007-0.87382-0.5668-3.0465-1.287-6.518-2.1608-4.676-1.1808-7.9173-2.2022-9.7239-3.0642s-3.1764-2.0546-4.1092-3.5779c-0.93283-1.5232-1.3992-3.2058-1.3992-5.0479,0-1.6767,0.38376-3.2294,1.1513-4.6582,0.76751-1.4288,1.8125-2.6155,3.135-3.5601,0.99186-0.7321,2.3439-1.352,4.056-1.8598,1.7122-0.5077,3.5483-0.7616,5.5084-0.7616,2.952,0,5.5438,0.4251,7.7756,1.2752,2.2317,0.8503,3.8789,2.0015,4.9416,3.4539s1.7948,3.3948,2.1963,5.8272l-6.2346,0.8502c-0.28342-1.9365-1.1041-3.4479-2.462-4.5343-1.3579-1.0863-3.2767-1.6294-5.7564-1.6295-2.9284,0.0001-5.0184,0.4842-6.27,1.4524-1.2517,0.9683-1.8775,2.1019-1.8775,3.4007-0.00001,0.8266,0.25977,1.5705,0.77933,2.2317,0.51954,0.6849,1.3343,1.2517,2.4443,1.7004,0.63762,0.2362,2.5151,0.7793,5.6324,1.6295,4.5106,1.2044,7.6575,2.1904,9.4405,2.9579s3.1822,1.8834,4.1977,3.3476,1.5232,3.2826,1.5232,5.4553c-0.00004,2.1254-0.61996,4.1269-1.8598,6.0043-1.2399,1.8775-3.0288,3.3299-5.3667,4.3572-2.338,1.0273-4.983,1.5409-7.935,1.5409-4.8885,0-8.614-1.0155-11.176-3.0464-2.5623-2.031-4.1978-5.042-4.9062-9.0332z"/>
   <path d="m-336.26,1240.3,6.27,0.8148c-0.6849,4.3217-2.4384,7.7047-5.2605,10.149s-6.2878,3.6664-10.397,3.6664c-5.1483,0-9.287-1.6826-12.416-5.0479-3.1291-3.3653-4.6937-8.1888-4.6937-14.471,0-4.0619,0.67305-7.6161,2.0192-10.663,1.3461-3.0465,3.3948-5.3313,6.1461-6.8546,2.7512-1.5232,5.7446-2.2848,8.98-2.2848,4.0855,0,7.4272,1.0332,10.025,3.0996,2.5977,2.0664,4.2627,5.0007,4.9948,8.8028l-6.1992,0.9565c-0.59043-2.5269-1.6354-4.428-3.135-5.7033-1.4996-1.2752-3.3122-1.9128-5.4376-1.9129-3.2118,0.0001-5.8214,1.1513-7.8287,3.4539-2.0074,2.3026-3.011,5.9453-3.011,10.928,0,5.0538,0.96825,8.7261,2.9048,11.017,1.9365,2.2907,4.4634,3.4361,7.5807,3.4361,2.5033,0,4.5933-0.7675,6.27-2.3026,1.6767-1.535,2.7394-3.8966,3.1882-7.0848z"/>
   <path d="m-324.61,1254,0-37.62,5.7387,0,0,5.7032c1.4642-2.6686,2.8162-4.4279,4.056-5.2782,1.2398-0.8501,2.6036-1.2752,4.0915-1.2752,2.149,0,4.3335,0.6849,6.5534,2.0546l-2.1963,5.9158c-1.5587-0.921-3.1173-1.3815-4.676-1.3816-1.3934,0.0001-2.645,0.4193-3.7549,1.2576-1.11,0.8384-1.9011,2.0015-2.3734,3.4893-0.70849,2.2671-1.0627,4.7468-1.0627,7.439v19.696z"/>
   <path d="m-300.27,1209.4,0-7.3327,6.3763,0,0,7.3327zm0,44.599,0-37.62,6.3763,0,0,37.62z"/>
   <path d="m-284.16,1268.5,0-52.038,5.8095,0,0,4.8885c1.3697-1.9129,2.9166-3.3476,4.6405-4.3041,1.724-0.9564,3.814-1.4346,6.2701-1.4346,3.2118,0,6.0457,0.8266,8.5018,2.4797,2.456,1.6531,4.3099,3.9852,5.5616,6.9962,1.2516,3.0111,1.8774,6.3114,1.8775,9.901-0.00003,3.8494-0.6908,7.3151-2.0723,10.397-1.3816,3.0819-3.3889,5.4435-6.0221,7.0848s-5.4022,2.4619-8.3069,2.4619c-2.1255,0-4.0324-0.4487-5.721-1.3461s-3.076-2.031-4.1623-3.4007v18.314zm5.7741-33.015c-0.00001,4.8412,0.98006,8.4191,2.9402,10.733,1.9601,2.3144,4.3335,3.4716,7.1202,3.4716,2.8339,0,5.2604-1.1985,7.2796-3.5956,2.0191-2.397,3.0287-6.1106,3.0288-11.141-0.00003-4.794-0.98599-8.3837-2.9579-10.769-1.972-2.3852-4.3277-3.5778-7.0671-3.5778-2.7159,0-5.1188,1.2694-7.2088,3.808-2.09,2.5388-3.135,6.2288-3.135,11.07z"/>
   <path d="m-229.85,1248.3,0.92102,5.6324c-1.7948,0.3779-3.4007,0.5668-4.8177,0.5668-2.3144,0-4.1092-0.3661-5.3844-1.0981-1.2753-0.7321-2.1727-1.6945-2.6922-2.8871-0.51956-1.1926-0.77934-3.7018-0.77933-7.5276v-21.644h-4.676v-4.9593h4.676v-9.3166l6.3409-3.8258v13.142h6.4118v4.9593h-6.4118v21.998c-0.00001,1.8185,0.11216,2.9875,0.33653,3.507,0.22434,0.5196,0.59038,0.9328,1.0981,1.2398,0.50773,0.3071,1.2339,0.4606,2.1786,0.4606,0.70846,0,1.6413-0.083,2.7985-0.248z"/>
   <path d="m-190.07,1231.3-34.397,14.701,0-6.3409,27.241-11.3-27.241-11.194,0-6.3409,34.397,14.524z"/>
  </g>
  <g style="letter-spacing:0px;word-spacing:0px;" stroke-width="0.71170264" font-weight="normal" font-size="51.08694458px" transform="matrix(0.3912948,0,0,0.3912948,-261.804,630.01029)" stroke="#000000" line-height="125%" font-style="normal" font-family="Sans" fill="#800000">
   <path d="m724.72,1004.8,0-4.1908,24.221-10.227,0,4.4651-19.208,7.8825,19.208,7.9574,0,4.4651z"/>
   <path d="m772.32,1020.8,0-3.3426c-1.6796,2.6275-4.1492,3.9412-7.4086,3.9412-2.112,0-4.0535-0.582-5.8246-1.7461s-3.143-2.7896-4.1159-4.8767c-0.97285-2.087-1.4593-4.4859-1.4593-7.1966-0.00001-2.6441,0.44068-5.043,1.3221-7.1965,0.88138-2.1536,2.2034-3.8041,3.9662-4.9516,1.7628-1.1474,3.7334-1.7212,5.9119-1.7212,1.5964,0.00003,3.0183,0.33678,4.2656,1.0103,1.2472,0.67354,2.2616,1.5508,3.0433,2.6317v-13.121h4.4651v36.569zm-14.194-13.221c0,3.3925,0.71508,5.9286,2.1453,7.6082s3.1181,2.5194,5.0638,2.5194c1.9623,0,3.6294-0.8024,5.0014-2.4072,1.3719-1.6047,2.0579-4.0535,2.058-7.3462-0.00002-3.6253-0.69848-6.2861-2.0954-7.9823s-3.1181-2.5443-5.1636-2.5444c-1.9956,0.00002-3.6627,0.81488-5.0014,2.4446s-2.0081,4.199-2.0081,7.7079z"/>
   <path d="m783.59,989.35,0-5.1636,4.4901,0,0,5.1636zm0,31.406,0-26.491,4.4901,0,0,26.491z"/>
   <path d="m802.3,1020.8-10.078-26.491,4.7395,0,5.6874,15.865c0.61529,1.7129,1.1807,3.4923,1.6962,5.3382,0.39911-1.3969,0.95621-3.0765,1.6713-5.0389l5.887-16.164h4.6148l-10.028,26.491z"/>
   <path d="m844.13,1004.8-24.221,10.352,0-4.4651,19.183-7.9574-19.183-7.8825,0-4.4651,24.221,10.227z"/>
  </g>
  <g style="letter-spacing:0px;word-spacing:0px;" stroke-width="0.71170264" font-weight="normal" font-size="51.08694458px" transform="matrix(0.3912948,0,0,0.3912948,-250.17734,630.01029)" stroke="#000000" line-height="125%" font-style="normal" font-family="Sans" fill="#800000">
   <path d="m1102.9,1004.8,0-4.1908,24.221-10.227,0,4.4651-19.208,7.8825,19.208,7.9574,0,4.4651z"/>
   <path d="m1150.5,1020.8,0-3.3426c-1.6796,2.6275-4.1491,3.9412-7.4086,3.9412-2.112,0-4.0535-0.582-5.8246-1.7461s-3.143-2.7896-4.1159-4.8767c-0.9728-2.087-1.4593-4.4859-1.4592-7.1966-0.0001-2.6441,0.4406-5.043,1.322-7.1965,0.8814-2.1536,2.2035-3.8041,3.9662-4.9516,1.7628-1.1474,3.7334-1.7212,5.912-1.7212,1.5964,0.00003,3.0183,0.33678,4.2655,1.0103,1.2472,0.67354,2.2617,1.5508,3.0433,2.6317v-13.121h4.4651v36.569zm-14.194-13.221c0,3.3925,0.7151,5.9286,2.1453,7.6082,1.4301,1.6796,3.1181,2.5194,5.0638,2.5194,1.9623,0,3.6294-0.8024,5.0014-2.4072,1.372-1.6047,2.0579-4.0535,2.058-7.3462-0.0001-3.6253-0.6985-6.2861-2.0954-7.9823s-3.1181-2.5443-5.1636-2.5444c-1.9956,0.00002-3.6627,0.81488-5.0014,2.4446s-2.0081,4.199-2.0081,7.7079z"/>
   <path d="m1161.8,989.35,0-5.1636,4.49,0,0,5.1636zm0,31.406,0-26.491,4.49,0,0,26.491z"/>
   <path d="m1180.5,1020.8-10.078-26.491,4.7395,0,5.6874,15.865c0.6153,1.7129,1.1807,3.4923,1.6962,5.3382,0.3992-1.3969,0.9563-3.0765,1.6714-5.0389l5.8869-16.164h4.6148l-10.028,26.491z"/>
   <path d="m1222.4,1004.8-24.221,10.352,0-4.4651,19.183-7.9574-19.183-7.8825,0-4.4651,24.221,10.227z"/>
  </g>
  <g style="letter-spacing:0px;word-spacing:0px;" stroke-width="0.92939574" font-weight="normal" transform="matrix(0.38954229,-0.17462987,0.17462987,0.38954229,-290.46531,594.31223)" line-height="125%" stroke="#000000" font-size="88.42359161px" font-style="normal" font-family="Sans" fill="#808080">
   <path d="m628.55,427.4,0-7.2535,41.923-17.702,0,7.7284-33.245,13.643,33.245,13.773,0,7.7284z"/>
   <path d="m681.23,400.72,0-8.9374,7.7716,0,0,8.9374zm0,54.358,0-45.852,7.7716,0,0,45.852z"/>
   <path d="m700.87,455.07,0-45.852,6.9513,0,0,6.4332c1.4392-2.2451,3.3533-4.0513,5.7424-5.4185,2.389-1.3672,5.1091-2.0508,8.1602-2.0508,3.3964,0.00004,6.1813,0.70524,8.3545,2.1156,2.1731,1.4104,3.7059,3.3821,4.5982,5.915,3.6267-5.3537,8.3472-8.0306,14.162-8.0306,4.5478,0.00004,8.045,1.2593,10.492,3.7779,2.4466,2.5186,3.6699,6.3972,3.6699,11.636v31.475h-7.7284v-28.884c-0.00006-3.1086-0.25192-5.3465-0.75558-6.7138-0.50377-1.3672-1.4176-2.4682-2.7416-3.3029-1.3241-0.83469-2.8784-1.252-4.663-1.2521-3.2238,0.00004-5.9007,1.0722-8.0307,3.2166s-3.195,5.5769-3.195,10.297v26.639h-7.7716v-29.791c-0.00004-3.454-0.63328-6.0446-1.8997-7.7716-1.2665-1.727-3.3389-2.5905-6.2173-2.5905-2.1876,0.00004-4.2096,0.57571-6.0662,1.727-1.8566,1.1514-3.2022,2.8352-4.0369,5.0515-0.83474,2.2164-1.2521,5.4114-1.2521,9.585v23.79z"/>
   <path d="m773.19,458.87,7.5557,1.1226c0.31661,2.3315,1.1945,4.0297,2.6337,5.0947,1.9285,1.4392,4.5622,2.1588,7.9011,2.1588,3.5979-0.00001,6.3756-0.7196,8.3329-2.1588s3.2813-3.454,3.9722-6.0446c0.40293-1.5831,0.59003-4.9076,0.56128-9.9736-3.3965,4.0009-7.6277,6.0014-12.694,6.0014-6.3036,0-11.182-2.2739-14.637-6.8217-3.454-4.5478-5.1811-10.002-5.1811-16.364-0.00001-4.3751,0.79154-8.412,2.3746-12.111,1.5831-3.6987,3.8786-6.5554,6.8865-8.5704,3.0079-2.0148,6.5411-3.0222,10.6-3.0223,5.4113,0.00004,9.8728,2.1876,13.384,6.5627v-5.5265h7.1672v39.635c-0.00004,7.1384-0.72683,12.197-2.1804,15.176-1.4536,2.9791-3.7563,5.3322-6.9081,7.0592s-7.0304,2.5905-11.636,2.5905c-5.4689-0.00002-9.8872-1.2305-13.255-3.6915-3.3677-2.461-4.994-6.1669-4.8788-11.118zm6.4332-27.546c-0.00001,6.0158,1.1945,10.405,3.5836,13.169,2.389,2.7632,5.3825,4.1449,8.9805,4.1449,3.5692,0,6.5627-1.3744,8.9805-4.1233,2.4178-2.7488,3.6267-7.0592,3.6268-12.931-0.00003-5.6128-1.2449-9.844-3.7347-12.694-2.4898-2.8496-5.4905-4.2743-9.0021-4.2744-3.4541,0.00004-6.39,1.4032-8.8078,4.2096s-3.6268,6.9729-3.6268,12.499z"/>
   <path d="m864.77,427.4-41.923,17.918,0-7.7284,33.202-13.773-33.202-13.643,0-7.7284,41.923,17.702z"/>
  </g>
  <path opacity="0.35" d="m373.76,855.3c0,50.21-122.11,90.914-272.74,90.914s-272.74-40.703-272.74-90.914c0-50.21,122.11-90.914,272.74-90.914s272.74,40.703,272.74,90.914z" transform="matrix(0.42859584,0,0,0.2699499,84.705283,793.30679)" filter="url(#filter3124)" stroke="#000000" fill="#b3b3b3"/>
  <g fill="#000000" transform="matrix(0.51199404,0,0,0.51199404,-8.2433556,560.72699)">
   <path style="text-align:center;" d="m449.63,934.97c0.38814,0,0.76053,0.0975,1.1172,0.29259,0.35662,0.19507,0.6369,0.47337,0.84083,0.83492,0.20392,0.36155,0.30588,0.74034,0.30589,1.1364-0.00001,0.39407-0.1,0.7699-0.29998,1.1275-0.19999,0.35761-0.47879,0.63641-0.8364,0.8364-0.35761,0.19998-0.73345,0.29998-1.1275,0.29998-0.39407,0-0.7699-0.1-1.1275-0.29998-0.35761-0.19999-0.63641-0.47879-0.8364-0.8364-0.19998-0.35761-0.29998-0.73344-0.29998-1.1275,0-0.39603,0.10197-0.77482,0.30589-1.1364,0.20393-0.36155,0.48421-0.63985,0.84083-0.83492,0.35663-0.19506,0.72901-0.29259,1.1172-0.29259zm0,0.44627c-0.31131,0.00001-0.61031,0.0778-0.89699,0.23349-0.28668,0.15565-0.51178,0.37879-0.67532,0.66941s-0.2453,0.59553-0.2453,0.91471c0,0.31525,0.0803,0.61671,0.24087,0.90437,0.16058,0.28767,0.3847,0.51179,0.67236,0.67237,0.28767,0.16058,0.58912,0.24087,0.90438,0.24087,0.31524,0,0.6167-0.0803,0.90437-0.24087,0.28766-0.16058,0.51178-0.3847,0.67236-0.67237,0.16058-0.28766,0.24087-0.58912,0.24087-0.90437,0-0.31721-0.0818-0.62163-0.2453-0.91323-0.16354-0.29161-0.38865-0.51524-0.67532-0.67089-0.28668-0.15565-0.58568-0.23348-0.89698-0.23349zm0.54971,2.1545,0.47583,0.15959c-0.0749,0.24826-0.199,0.43839-0.37239,0.5704-0.17339,0.13202-0.38027,0.19802-0.62064,0.19802-0.33693,0-0.61179-0.11034-0.82458-0.33101s-0.31919-0.52509-0.31919-0.91324c0-0.25417,0.0473-0.48075,0.14186-0.67975,0.0946-0.199,0.23102-0.34776,0.40934-0.44628,0.17831-0.0985,0.3778-0.14777,0.59848-0.14777,0.24234,0,0.44479,0.0576,0.60734,0.17289,0.16255,0.11527,0.28914,0.29703,0.37978,0.54528l-0.47878,0.11231c-0.0552-0.14383-0.1266-0.24825-0.21428-0.31328-0.0877-0.065-0.19161-0.0975-0.3118-0.0975-0.1793,0.00001-0.32608,0.0675-0.44036,0.20245-0.11428,0.13497-0.17142,0.34629-0.17142,0.63395s0.0562,0.49947,0.16846,0.63542c0.11231,0.13595,0.24728,0.20393,0.4049,0.20393,0.13201,0,0.24629-0.0389,0.34284-0.11674,0.0965-0.0778,0.17141-0.20737,0.22461-0.38864z"/>
   <path style="text-align:center;" d="m454.91,938.62,0,0.77138-2.9111,0c0.0315-0.29161,0.1261-0.56794,0.28373-0.82901,0.15762-0.26106,0.46893-0.60734,0.93392-1.0388,0.37436-0.34874,0.6039-0.58518,0.68863-0.70931,0.11427-0.17142,0.17141-0.34086,0.17141-0.50834,0-0.18521-0.0497-0.32756-0.14925-0.42707-0.0995-0.0995-0.23693-0.14924-0.41228-0.14925-0.17339,0.00001-0.31131,0.0522-0.41377,0.15664-0.10246,0.10443-0.16156,0.27782-0.17733,0.52016l-0.82753-0.0828c0.0493-0.45711,0.20393-0.78516,0.46401-0.98417,0.26008-0.19899,0.58518-0.29849,0.9753-0.2985,0.42756,0.00001,0.7635,0.11527,1.0078,0.34579,0.24431,0.23053,0.36647,0.51721,0.36647,0.86004,0,0.19506-0.035,0.38076-0.10492,0.5571-0.0699,0.17635-0.18077,0.36106-0.33249,0.55415-0.10048,0.12807-0.28175,0.3123-0.5438,0.55267-0.26205,0.24038-0.42805,0.39998-0.49799,0.47879-0.07,0.0788-0.1266,0.15565-0.16994,0.23052z"/>
   <path style="text-align:center;" d="m456.88,935.04c0.41967,0.00001,0.74773,0.14975,0.98417,0.44923,0.28175,0.35466,0.42263,0.9428,0.42263,1.7644,0,0.81965-0.14187,1.4088-0.42559,1.7674-0.23447,0.29554-0.56154,0.44332-0.98121,0.44332-0.42165,0-0.76153-0.16206-1.0196-0.48618-0.25812-0.32411-0.38717-0.9019-0.38717-1.7334,0-0.8157,0.14186-1.4028,0.42559-1.7614,0.23446-0.29554,0.56153-0.44331,0.98121-0.44332zm0,0.68862c-0.10049,0.00001-0.19014,0.032-0.26895,0.0961-0.0788,0.064-0.13989,0.1788-0.18324,0.34431-0.0571,0.21476-0.0857,0.57631-0.0857,1.0846-0.00001,0.50834,0.0256,0.85758,0.0768,1.0477,0.0512,0.19014,0.11575,0.31673,0.19358,0.37978,0.0778,0.063,0.16698,0.0946,0.26747,0.0946,0.10048,0,0.19013-0.032,0.26895-0.096,0.0788-0.064,0.13989-0.1788,0.18323-0.34431,0.0571-0.21279,0.0857-0.57336,0.0857-1.0817s-0.0256-0.85757-0.0768-1.0477-0.11576-0.31722-0.19358-0.38125c-0.0778-0.064-0.16699-0.096-0.26747-0.0961z"/>
   <path style="text-align:center;" d="m460.97,939.39-0.83049,0,0-3.1298c-0.30343,0.28372-0.66104,0.49356-1.0728,0.62951v-0.75364c0.21673-0.0709,0.45218-0.2054,0.70635-0.40342s0.42854-0.42903,0.52312-0.69306h0.67385z"/>
   <path style="text-align:center;" d="m463.84,939.39,0-0.87186-1.7733,0,0-0.72705,1.8797-2.7515,0.69749,0,0,2.7486,0.53789,0,0,0.73-0.53789,0,0,0.87186zm0-1.6019,0-1.4807-0.99599,1.4807z"/>
   <path style="text-align:center;" d="m468.23,939.39-0.83049,0,0-3.1387,0.77138,0,0,0.44627c0.13201-0.21082,0.25072-0.34972,0.35613-0.41672s0.22511-0.10048,0.35909-0.10048c0.18915,0,0.3714,0.0522,0.54676,0.15664l-0.25712,0.72409c-0.1399-0.0906-0.26994-0.13595-0.39013-0.13596-0.11625,0.00001-0.21476,0.032-0.29554,0.0961-0.0808,0.064-0.14433,0.17979-0.19063,0.34726-0.0463,0.16748-0.0695,0.5182-0.0695,1.0522z"/>
   <path style="text-align:center;" d="m469.79,935.83,0-0.76842,0.83049,0,0,0.76842zm0,3.5643,0-3.1387,0.83049,0,0,3.1387z"/>
   <path style="text-align:center;" d="m471.28,937.78c0-0.27584,0.068-0.54282,0.20393-0.80093,0.13595-0.25811,0.32855-0.45514,0.57779-0.59109s0.52755-0.20393,0.83492-0.20393c0.47484,0,0.86397,0.15418,1.1674,0.46253s0.45514,0.69798,0.45515,1.1689c-0.00001,0.47485-0.1532,0.86842-0.45958,1.1807-0.30638,0.31229-0.69207,0.46844-1.1571,0.46844-0.28767,0-0.56203-0.065-0.8231-0.19506-0.26106-0.13004-0.45957-0.32067-0.59552-0.57188-0.13595-0.25122-0.20393-0.55711-0.20393-0.91767zm0.85117,0.0443c0,0.31131,0.0739,0.54972,0.22166,0.71522,0.14777,0.16551,0.33003,0.24826,0.54676,0.24826s0.3985-0.0828,0.54529-0.24826c0.14678-0.1655,0.22017-0.40588,0.22018-0.72113-0.00001-0.30737-0.0734-0.5438-0.22018-0.70931-0.14679-0.16551-0.32856-0.24826-0.54529-0.24826s-0.39899,0.0828-0.54676,0.24826c-0.14777,0.16551-0.22166,0.40391-0.22166,0.71522z"/>
   <path style="text-align:center;" d="m474.81,936.25,0.46105,0,0-0.23644c0-0.26401,0.0281-0.46104,0.0842-0.59109,0.0562-0.13003,0.1596-0.23594,0.31033-0.31771,0.15072-0.0818,0.34135-0.12265,0.57188-0.12265,0.23643,0,0.46794,0.0355,0.69453,0.10639l-0.11231,0.57927c-0.13201-0.0315-0.25909-0.0473-0.38125-0.0473-0.12019,0-0.20639,0.0281-0.2586,0.0842-0.0522,0.0562-0.0783,0.16403-0.0783,0.32362v0.22166h0.62064v0.65316h-0.62064v2.4855h-0.83049v-2.4855h-0.46105z"/>
   <path style="text-align:center;" d="m477,937.78c0-0.27584,0.068-0.54282,0.20393-0.80093,0.13595-0.25811,0.32855-0.45514,0.57779-0.59109s0.52755-0.20393,0.83492-0.20393c0.47484,0,0.86398,0.15418,1.1674,0.46253s0.45513,0.69798,0.45514,1.1689c-0.00001,0.47485-0.1532,0.86842-0.45958,1.1807-0.30638,0.31229-0.69207,0.46844-1.1571,0.46844-0.28767,0-0.56203-0.065-0.8231-0.19506-0.26106-0.13004-0.45957-0.32067-0.59552-0.57188-0.13595-0.25122-0.20393-0.55711-0.20393-0.91767zm0.85117,0.0443c0,0.31131,0.0739,0.54972,0.22166,0.71522,0.14778,0.16551,0.33003,0.24826,0.54676,0.24826,0.21674,0,0.3985-0.0828,0.54529-0.24826,0.14678-0.1655,0.22018-0.40588,0.22018-0.72113,0-0.30737-0.0734-0.5438-0.22018-0.70931-0.14679-0.16551-0.32855-0.24826-0.54529-0.24826-0.21673,0-0.39898,0.0828-0.54676,0.24826-0.14777,0.16551-0.22166,0.40391-0.22166,0.71522z"/>
   <path style="text-align:center;" d="m481.69,939.39-0.83048,0,0-3.1387,0.77137,0,0,0.44627c0.13201-0.21082,0.25072-0.34972,0.35614-0.41672,0.10541-0.067,0.2251-0.10048,0.35909-0.10048,0.18914,0,0.3714,0.0522,0.54676,0.15664l-0.25713,0.72409c-0.13989-0.0906-0.26993-0.13595-0.39012-0.13596-0.11625,0.00001-0.21477,0.032-0.29555,0.0961-0.0808,0.064-0.14432,0.17979-0.19062,0.34726-0.0463,0.16748-0.0695,0.5182-0.0695,1.0522z"/>
   <path style="text-align:center;" d="m485.98,937.18-0.81867,0.14778c-0.0276-0.16354-0.0901-0.28668-0.18767-0.36943-0.0975-0.0828-0.22412-0.12413-0.37977-0.12413-0.20689,0-0.3719,0.0714-0.49504,0.21427-0.12315,0.14285-0.18472,0.38175-0.18472,0.7167,0,0.37238,0.0626,0.63542,0.18767,0.7891,0.12512,0.15369,0.29308,0.23053,0.50391,0.23053,0.15762,0,0.28668-0.0448,0.38716-0.13447,0.10049-0.0897,0.17142-0.24383,0.2128-0.46253l0.8157,0.1389c-0.0847,0.37436-0.24727,0.6571-0.48765,0.84822s-0.56252,0.28668-0.96643,0.28668c-0.45909,0-0.82507-0.14482-1.098-0.43445-0.27288-0.28964-0.40933-0.69059-0.40933-1.2029,0-0.51818,0.13694-0.9216,0.41081-1.2103,0.27387-0.28864,0.64429-0.43297,1.1112-0.43297,0.38224,0,0.68616,0.0823,0.91176,0.24678,0.2256,0.16452,0.38766,0.41524,0.48618,0.75216z"/>
   <path style="text-align:center;" d="m488.43,938.39,0.82753,0.13891c-0.1064,0.30343-0.27437,0.53445-0.5039,0.69306-0.22955,0.1586-0.51672,0.23791-0.86152,0.23791-0.54578,0-0.94969-0.17831-1.2117-0.53494-0.20688-0.28569-0.31032-0.64626-0.31032-1.0817,0-0.52016,0.13595-0.92752,0.40785-1.2221,0.2719-0.29456,0.61572-0.44184,1.0315-0.44184,0.46696,0,0.8354,0.15418,1.1053,0.46253,0.26993,0.30835,0.39898,0.78073,0.38716,1.4171h-2.0806c0.006,0.24629,0.0729,0.4379,0.20097,0.57484s0.28766,0.2054,0.47879,0.2054c0.13003,0,0.23939-0.0355,0.32805-0.10639,0.0887-0.0709,0.15565-0.18521,0.20097-0.34284zm0.0473-0.83935c-0.006-0.24037-0.068-0.42312-0.18619-0.54824-0.11822-0.12511-0.26206-0.18766-0.4315-0.18767-0.18127,0.00001-0.33101,0.066-0.44923,0.19802-0.11822,0.13201-0.17634,0.31131-0.17437,0.53789z"/>
   <path style="text-align:center;" d="m422.18,946.96-0.83049,0,0-3.1387,0.77138,0,0,0.44627c0.13201-0.21082,0.25072-0.34972,0.35613-0.41672s0.22511-0.10048,0.35909-0.10048c0.18915,0,0.3714,0.0522,0.54676,0.15664l-0.25713,0.72408c-0.13989-0.0906-0.26993-0.13594-0.39012-0.13595-0.11625,0.00001-0.21476,0.032-0.29554,0.0961-0.0808,0.064-0.14433,0.17979-0.19063,0.34726-0.0463,0.16748-0.0695,0.51819-0.0695,1.0522z"/>
   <path style="text-align:center;" d="m423.74,943.39,0-0.76842,0.83049,0,0,0.76842zm0,3.5643,0-3.1387,0.83049,0,0,3.1387z"/>
   <path style="text-align:center;" d="m425.22,945.34c0-0.27585,0.068-0.54282,0.20393-0.80093,0.13595-0.25811,0.32855-0.45514,0.57779-0.5911,0.24924-0.13594,0.52755-0.20392,0.83492-0.20392,0.47484,0,0.86397,0.15418,1.1674,0.46253s0.45514,0.69798,0.45514,1.1689c0,0.47485-0.15319,0.86841-0.45957,1.1807s-0.69207,0.46844-1.1571,0.46844c-0.28767,0-0.56203-0.065-0.8231-0.19506-0.26106-0.13004-0.45957-0.32067-0.59552-0.57188-0.13595-0.25122-0.20393-0.55711-0.20393-0.91767zm0.85117,0.0443c0,0.31131,0.0739,0.54971,0.22166,0.71522,0.14777,0.16551,0.33003,0.24826,0.54676,0.24826s0.3985-0.0828,0.54529-0.24826c0.14678-0.16551,0.22017-0.40588,0.22018-0.72113-0.00001-0.30737-0.0734-0.54381-0.22018-0.70931-0.14679-0.16551-0.32856-0.24826-0.54529-0.24826s-0.39899,0.0828-0.54676,0.24826c-0.14777,0.1655-0.22166,0.40391-0.22166,0.71522z"/>
   <path style="text-align:center;" d="m428.75,943.82,0.46105,0,0-0.23644c0-0.26402,0.0281-0.46105,0.0842-0.59109,0.0562-0.13004,0.1596-0.23594,0.31033-0.31771,0.15072-0.0818,0.34135-0.12265,0.57188-0.12265,0.23643,0,0.46794,0.0355,0.69453,0.10639l-0.11231,0.57927c-0.13201-0.0315-0.25909-0.0473-0.38125-0.0473-0.12019,0-0.20639,0.0281-0.2586,0.0842-0.0522,0.0562-0.0783,0.16403-0.0783,0.32362v0.22166h0.62064v0.65315h-0.62064v2.4856h-0.83049v-2.4856h-0.46105z"/>
   <path style="text-align:center;" d="m430.95,945.34c0-0.27585,0.068-0.54282,0.20393-0.80093,0.13595-0.25811,0.32855-0.45514,0.57779-0.5911,0.24924-0.13594,0.52755-0.20392,0.83492-0.20392,0.47484,0,0.86397,0.15418,1.1674,0.46253s0.45514,0.69798,0.45515,1.1689c-0.00001,0.47485-0.1532,0.86841-0.45958,1.1807s-0.69207,0.46844-1.1571,0.46844c-0.28767,0-0.56203-0.065-0.8231-0.19506-0.26106-0.13004-0.45957-0.32067-0.59552-0.57188-0.13595-0.25122-0.20393-0.55711-0.20393-0.91767zm0.85117,0.0443c0,0.31131,0.0739,0.54971,0.22166,0.71522,0.14777,0.16551,0.33003,0.24826,0.54676,0.24826s0.3985-0.0828,0.54529-0.24826c0.14678-0.16551,0.22017-0.40588,0.22018-0.72113-0.00001-0.30737-0.0734-0.54381-0.22018-0.70931-0.14679-0.16551-0.32856-0.24826-0.54529-0.24826s-0.39899,0.0828-0.54676,0.24826c-0.14777,0.1655-0.22166,0.40391-0.22166,0.71522z"/>
   <path style="text-align:center;" d="m435.63,946.96-0.83048,0,0-3.1387,0.77137,0,0,0.44627c0.13201-0.21082,0.25072-0.34972,0.35613-0.41672s0.22511-0.10048,0.35909-0.10048c0.18915,0,0.3714,0.0522,0.54676,0.15664l-0.25712,0.72408c-0.1399-0.0906-0.26994-0.13594-0.39012-0.13595-0.11625,0.00001-0.21477,0.032-0.29555,0.0961-0.0808,0.064-0.14432,0.17979-0.19063,0.34726-0.0463,0.16748-0.0694,0.51819-0.0694,1.0522z"/>
   <path style="text-align:center;" d="m439.93,944.75-0.81866,0.14778c-0.0276-0.16354-0.0901-0.28668-0.18767-0.36944-0.0975-0.0828-0.22412-0.12412-0.37978-0.12413-0.20688,0.00001-0.37189,0.0714-0.49504,0.21427-0.12314,0.14285-0.18471,0.38175-0.18471,0.7167,0,0.37239,0.0626,0.63543,0.18767,0.78911,0.12511,0.15369,0.29308,0.23053,0.50391,0.23053,0.15762,0,0.28667-0.0448,0.38716-0.13448,0.10048-0.0896,0.17142-0.24382,0.21279-0.46253l0.81571,0.13891c-0.0847,0.37436-0.24728,0.6571-0.48765,0.84822-0.24038,0.19112-0.56252,0.28668-0.96644,0.28668-0.45908,0-0.82506-0.14482-1.098-0.43445-0.27289-0.28964-0.40933-0.6906-0.40933-1.2029,0-0.51819,0.13694-0.92161,0.41081-1.2103,0.27387-0.28864,0.64429-0.43297,1.1112-0.43297,0.38224,0,0.68616,0.0823,0.91176,0.24678,0.2256,0.16452,0.38766,0.41524,0.48617,0.75216z"/>
   <path style="text-align:center;" d="m442.38,945.96,0.82753,0.13891c-0.1064,0.30343-0.27437,0.53444-0.50391,0.69305s-0.51671,0.23792-0.86151,0.23792c-0.54578,0-0.94969-0.17831-1.2117-0.53494-0.20688-0.28569-0.31032-0.64626-0.31032-1.0817,0-0.52016,0.13595-0.92752,0.40785-1.2221,0.2719-0.29456,0.61572-0.44184,1.0314-0.44184,0.46697,0,0.83541,0.15418,1.1054,0.46253,0.26993,0.30835,0.39898,0.78073,0.38716,1.4171h-2.0806c0.006,0.24629,0.0729,0.4379,0.20097,0.57484,0.12807,0.13693,0.28766,0.2054,0.47878,0.2054,0.13004,0,0.23939-0.0355,0.32806-0.1064,0.0887-0.0709,0.15565-0.1852,0.20097-0.34283zm0.0473-0.83935c-0.006-0.24037-0.068-0.42312-0.1862-0.54824-0.11822-0.12511-0.26205-0.18767-0.43149-0.18767-0.18127,0-0.33102,0.066-0.44923,0.19802-0.11822,0.13201-0.17635,0.31131-0.17437,0.53789z"/>
   <path style="text-align:center;" d="m443.93,946.96,0-0.83049,0.83048,0,0,0.83049z"/>
   <path style="text-align:center;" d="m446.19,946.96-0.99303-3.1387,0.80684,0,0.58813,2.057,0.54085-2.057,0.80093,0,0.52312,2.057,0.59996-2.057,0.81866,0-1.0078,3.1387-0.79798,0-0.54085-2.0186-0.53198,2.0186z"/>
   <path style="text-align:center;" d="m450.12,945.34c0-0.27585,0.068-0.54282,0.20392-0.80093,0.13596-0.25811,0.32855-0.45514,0.5778-0.5911,0.24924-0.13594,0.52755-0.20392,0.83491-0.20392,0.47485,0,0.86398,0.15418,1.1674,0.46253,0.30343,0.30835,0.45514,0.69798,0.45514,1.1689,0,0.47485-0.15319,0.86841-0.45957,1.1807-0.30639,0.31229-0.69207,0.46844-1.1571,0.46844-0.28767,0-0.56204-0.065-0.8231-0.19506-0.26107-0.13004-0.45957-0.32067-0.59553-0.57188-0.13595-0.25122-0.20392-0.55711-0.20392-0.91767zm0.85117,0.0443c0,0.31131,0.0739,0.54971,0.22166,0.71522,0.14777,0.16551,0.33002,0.24826,0.54676,0.24826,0.21673,0,0.39849-0.0828,0.54528-0.24826,0.14679-0.16551,0.22018-0.40588,0.22018-0.72113,0-0.30737-0.0734-0.54381-0.22018-0.70931-0.14679-0.16551-0.32855-0.24826-0.54528-0.24826-0.21674,0-0.39899,0.0828-0.54676,0.24826-0.14777,0.1655-0.22166,0.40391-0.22166,0.71522z"/>
   <path style="text-align:center;" d="m454.81,946.96-0.83049,0,0-3.1387,0.77138,0,0,0.44627c0.13201-0.21082,0.25072-0.34972,0.35613-0.41672s0.22511-0.10048,0.35909-0.10048c0.18915,0,0.3714,0.0522,0.54676,0.15664l-0.25713,0.72408c-0.13989-0.0906-0.26993-0.13594-0.39012-0.13595-0.11625,0.00001-0.21476,0.032-0.29554,0.0961-0.0808,0.064-0.14433,0.17979-0.19063,0.34726-0.0463,0.16748-0.0695,0.51819-0.0695,1.0522z"/>
   <path style="text-align:center;" d="m459.24,946.96-0.77137,0,0-0.46105c-0.12807,0.17929-0.2793,0.31278-0.45367,0.40046-0.17437,0.0877-0.35022,0.13152-0.52754,0.13152-0.36057,0-0.66942-0.14531-0.92654-0.43593-0.25713-0.29062-0.38569-0.69601-0.38569-1.2162,0-0.53198,0.12511-0.93639,0.37534-1.2132,0.25023-0.27683,0.56647-0.41524,0.94871-0.41524,0.35071,0,0.65414,0.1458,0.91028,0.43741v-1.5605h0.83048zm-2.2166-1.6373c0,0.33496,0.0463,0.5773,0.1389,0.72705,0.13398,0.21673,0.32116,0.3251,0.56154,0.3251,0.19112,0,0.35367-0.0813,0.48765-0.24383,0.13398-0.16255,0.20097-0.40539,0.20097-0.72852,0-0.36056-0.065-0.62015-0.19506-0.77876-0.13004-0.15861-0.29653-0.23792-0.49947-0.23792-0.19703,0-0.36204,0.0783-0.49504,0.23496-0.133,0.15664-0.19949,0.39062-0.19949,0.70192z"/>
   <path style="text-align:center;" d="m460.04,943.82,0.77433,0,0,0.46105c0.10048-0.15762,0.23643-0.28569,0.40785-0.38421,0.17142-0.0985,0.36155-0.14777,0.57041-0.14777,0.3645,0,0.67384,0.14285,0.92801,0.42854,0.25417,0.2857,0.38125,0.6837,0.38126,1.194-0.00001,0.52411-0.12808,0.93147-0.38421,1.2221-0.25615,0.29062-0.56647,0.43593-0.93097,0.43593-0.17339,0-0.33053-0.0345-0.4714-0.10344-0.14088-0.069-0.28914-0.18718-0.4448-0.35466v1.5812h-0.83048zm0.82162,1.5162c0,0.35269,0.0699,0.61326,0.20983,0.78172,0.13989,0.16846,0.31033,0.25269,0.5113,0.25269,0.19309,0,0.35367-0.0773,0.48174-0.232,0.12807-0.15467,0.1921-0.40835,0.1921-0.76103,0-0.32904-0.066-0.57336-0.19801-0.73296-0.13202-0.15959-0.29555-0.23939-0.49061-0.23939-0.20294,0-0.3714,0.0783-0.50538,0.23496-0.13398,0.15664-0.20097,0.38864-0.20097,0.69601z"/>
   <path style="text-align:center;" d="m464.56,946.96-0.83048,0,0-3.1387,0.77138,0,0,0.44627c0.132-0.21082,0.25072-0.34972,0.35613-0.41672s0.2251-0.10048,0.35909-0.10048c0.18914,0,0.3714,0.0522,0.54676,0.15664l-0.25713,0.72408c-0.13989-0.0906-0.26993-0.13594-0.39012-0.13595-0.11625,0.00001-0.21476,0.032-0.29555,0.0961-0.0808,0.064-0.14432,0.17979-0.19062,0.34726-0.0463,0.16748-0.0695,0.51819-0.0695,1.0522z"/>
   <path style="text-align:center;" d="m467.94,945.96,0.82753,0.13891c-0.1064,0.30343-0.27437,0.53444-0.50391,0.69305s-0.51671,0.23792-0.86151,0.23792c-0.54578,0-0.94969-0.17831-1.2117-0.53494-0.20688-0.28569-0.31033-0.64626-0.31033-1.0817,0-0.52016,0.13596-0.92752,0.40786-1.2221,0.2719-0.29456,0.61572-0.44184,1.0314-0.44184,0.46696,0,0.83541,0.15418,1.1054,0.46253,0.26992,0.30835,0.39898,0.78073,0.38716,1.4171h-2.0806c0.006,0.24629,0.0729,0.4379,0.20097,0.57484,0.12807,0.13693,0.28766,0.2054,0.47878,0.2054,0.13004,0,0.23939-0.0355,0.32806-0.1064,0.0887-0.0709,0.15565-0.1852,0.20097-0.34283zm0.0473-0.83935c-0.006-0.24037-0.068-0.42312-0.1862-0.54824-0.11822-0.12511-0.26205-0.18767-0.43149-0.18767-0.18127,0-0.33102,0.066-0.44923,0.19802-0.11822,0.13201-0.17635,0.31131-0.17438,0.53789z"/>
   <path style="text-align:center;" d="m469.19,946.06,0.83344-0.12708c0.0355,0.16156,0.10738,0.28422,0.21574,0.36795,0.10837,0.0837,0.26008,0.12561,0.45515,0.12561,0.21476,0,0.37632-0.0394,0.48469-0.11822,0.0729-0.0552,0.10935-0.12905,0.10935-0.22166,0-0.063-0.0197-0.11526-0.0591-0.15664-0.0414-0.0394-0.13398-0.0759-0.27781-0.10935-0.66991-0.14777-1.0945-0.28274-1.2738-0.4049-0.24826-0.16944-0.37239-0.40489-0.37239-0.70635,0-0.2719,0.10738-0.50046,0.32214-0.68567,0.21477-0.18521,0.54775-0.27781,0.99895-0.27781,0.42952,0,0.74871,0.0699,0.95757,0.20983,0.20885,0.1399,0.35268,0.34678,0.4315,0.62065l-0.7832,0.14482c-0.0335-0.12216-0.097-0.21575-0.19063-0.28077-0.0936-0.065-0.22708-0.0975-0.40046-0.0975-0.21871,0-0.37535,0.0305-0.46992,0.0916-0.063,0.0433-0.0946,0.0995-0.0946,0.16846,0,0.0591,0.0276,0.10935,0.0828,0.15073,0.0749,0.0552,0.33347,0.133,0.77581,0.23348,0.44233,0.10049,0.75117,0.22363,0.92653,0.36943,0.17339,0.14778,0.26008,0.35367,0.26008,0.61769,0,0.28767-0.12019,0.53494-0.36056,0.74182-0.24038,0.20689-0.59602,0.31033-1.0669,0.31033-0.42756,0-0.76596-0.0867-1.0152-0.26008-0.24924-0.17339-0.41228-0.40884-0.48912-0.70636z"/>
   <path style="text-align:center;" d="m472.56,946.06,0.83344-0.12708c0.0355,0.16156,0.10738,0.28422,0.21575,0.36795,0.10836,0.0837,0.26008,0.12561,0.45514,0.12561,0.21476,0,0.37633-0.0394,0.4847-0.11822,0.0729-0.0552,0.10935-0.12905,0.10935-0.22166,0-0.063-0.0197-0.11526-0.0591-0.15664-0.0414-0.0394-0.13398-0.0759-0.27782-0.10935-0.6699-0.14777-1.0945-0.28274-1.2738-0.4049-0.24826-0.16944-0.37239-0.40489-0.37239-0.70635,0-0.2719,0.10738-0.50046,0.32215-0.68567,0.21476-0.18521,0.54774-0.27781,0.99894-0.27781,0.42953,0,0.74872,0.0699,0.95757,0.20983,0.20885,0.1399,0.35269,0.34678,0.4315,0.62065l-0.7832,0.14482c-0.0335-0.12216-0.097-0.21575-0.19062-0.28077-0.0936-0.065-0.22708-0.0975-0.40047-0.0975-0.2187,0-0.37534,0.0305-0.46992,0.0916-0.0631,0.0433-0.0946,0.0995-0.0946,0.16846,0,0.0591,0.0276,0.10935,0.0828,0.15073,0.0749,0.0552,0.33347,0.133,0.77581,0.23348,0.44233,0.10049,0.75118,0.22363,0.92654,0.36943,0.17338,0.14778,0.26007,0.35367,0.26008,0.61769-0.00001,0.28767-0.12019,0.53494-0.36057,0.74182-0.24038,0.20689-0.59602,0.31033-1.0669,0.31033-0.42756,0-0.76596-0.0867-1.0152-0.26008-0.24924-0.17339-0.41229-0.40884-0.48913-0.70636z"/>
   <path style="text-align:center;" d="m476.23,946.96,0-0.83049,0.83048,0,0,0.83049z"/>
   <path style="text-align:center;" d="m480.64,944.75-0.81867,0.14778c-0.0276-0.16354-0.0901-0.28668-0.18767-0.36944-0.0975-0.0828-0.22412-0.12412-0.37978-0.12413-0.20688,0.00001-0.37189,0.0714-0.49504,0.21427-0.12314,0.14285-0.18471,0.38175-0.18471,0.7167,0,0.37239,0.0625,0.63543,0.18767,0.78911,0.12511,0.15369,0.29308,0.23053,0.50391,0.23053,0.15762,0,0.28667-0.0448,0.38716-0.13448,0.10048-0.0896,0.17142-0.24382,0.21279-0.46253l0.81571,0.13891c-0.0847,0.37436-0.24727,0.6571-0.48765,0.84822s-0.56252,0.28668-0.96643,0.28668c-0.45909,0-0.82507-0.14482-1.098-0.43445-0.27289-0.28964-0.40933-0.6906-0.40933-1.2029,0-0.51819,0.13694-0.92161,0.41081-1.2103,0.27387-0.28864,0.64429-0.43297,1.1112-0.43297,0.38224,0,0.68616,0.0823,0.91176,0.24678,0.2256,0.16452,0.38766,0.41524,0.48618,0.75216z"/>
   <path style="text-align:center;" d="m481.08,945.34c0-0.27585,0.068-0.54282,0.20393-0.80093,0.13595-0.25811,0.32854-0.45514,0.57779-0.5911,0.24924-0.13594,0.52755-0.20392,0.83492-0.20392,0.47484,0,0.86397,0.15418,1.1674,0.46253s0.45514,0.69798,0.45514,1.1689c0,0.47485-0.15319,0.86841-0.45957,1.1807-0.30639,0.31229-0.69207,0.46844-1.1571,0.46844-0.28767,0-0.56203-0.065-0.8231-0.19506-0.26107-0.13004-0.45957-0.32067-0.59552-0.57188-0.13596-0.25122-0.20393-0.55711-0.20393-0.91767zm0.85117,0.0443c0,0.31131,0.0739,0.54971,0.22166,0.71522,0.14777,0.16551,0.33003,0.24826,0.54676,0.24826s0.39849-0.0828,0.54528-0.24826c0.14679-0.16551,0.22018-0.40588,0.22019-0.72113-0.00001-0.30737-0.0734-0.54381-0.22019-0.70931-0.14679-0.16551-0.32855-0.24826-0.54528-0.24826s-0.39899,0.0828-0.54676,0.24826c-0.14777,0.1655-0.22166,0.40391-0.22166,0.71522z"/>
   <path style="text-align:center;" d="m484.91,943.82,0.76547,0,0,0.42854c0.27387-0.33298,0.59995-0.49947,0.97825-0.49947,0.20097,0,0.37534,0.0414,0.52312,0.12413,0.14777,0.0828,0.26894,0.20787,0.36352,0.37534,0.13792-0.16747,0.28668-0.29259,0.44628-0.37534,0.15959-0.0827,0.33002-0.12413,0.51129-0.12413,0.23052,0,0.42558,0.0468,0.58518,0.14038,0.15959,0.0936,0.2788,0.23102,0.35761,0.41229,0.0571,0.13398,0.0857,0.35072,0.0857,0.6502v2.0068h-0.83048v-1.794c-0.00001-0.3113-0.0286-0.51227-0.0857-0.60291-0.0769-0.11822-0.19507-0.17733-0.35466-0.17733-0.11625,0-0.2256,0.0355-0.32805,0.1064-0.10246,0.0709-0.17635,0.17486-0.22166,0.3118-0.0453,0.13694-0.068,0.35318-0.068,0.64872v1.5073h-0.83048v-1.7201c0-0.3054-0.0148-0.50243-0.0443-0.59109-0.0296-0.0887-0.0754-0.15467-0.13743-0.19802-0.0621-0.0433-0.1463-0.065-0.25269-0.065-0.12808,0-0.24334,0.0345-0.34579,0.10344-0.10246,0.069-0.17585,0.16847-0.22019,0.2985-0.0443,0.13005-0.0665,0.34579-0.0665,0.64725v1.525h-0.83049z"/>
  </g>
 </g>
</svg>
